<?xml version="1.0" encoding="utf-8"?>
<!-- Generator: Adobe Illustrator 26.0.1, SVG Export Plug-In . SVG Version: 6.00 Build 0)  -->
<svg version="1.1" id="Layer_1" xmlns="http://www.w3.org/2000/svg" xmlns:xlink="http://www.w3.org/1999/xlink" x="0px" y="0px"
	 viewBox="0 0 361.6 376.4" style="enable-background:new 0 0 361.6 376.4;" xml:space="preserve">
<style type="text/css">
	.st0{fill:url(#SVGID_1_);}
	.st1{fill:#91B3FA;}
	.st2{opacity:0.6;fill:#FFFFFF;enable-background:new    ;}
	.st3{opacity:0.78;fill:#FFFFFF;enable-background:new    ;}
	.st4{fill:url(#SVGID_00000051360797870815941610000015239816251735801273_);}
	.st5{fill:url(#SVGID_00000111882397957250318680000015740599339392844189_);}
	.st6{opacity:0.6;}
	.st7{fill:#FFFFFF;}
	.st8{fill:url(#SVGID_00000092458241126254958190000002392058326892795572_);}
	.st9{fill:url(#SVGID_00000072999214078864566710000009217882198719388305_);}
	.st10{fill:url(#SVGID_00000164496824611834138090000014232855697621557931_);}
	.st11{fill:url(#SVGID_00000025434916960779133180000013854463531145538188_);}
	.st12{fill:url(#SVGID_00000111160869180827690210000016879172257710400384_);}
	.st13{opacity:0.5;fill:#FFFFFF;enable-background:new    ;}
	.st14{fill:url(#SVGID_00000014591989468473037770000003106163871085630892_);}
	.st15{fill:url(#SVGID_00000093870271836917139520000006567830788203246004_);}
	.st16{fill:url(#SVGID_00000001626110031631716070000005910332627170039447_);}
	.st17{fill:url(#SVGID_00000150073760573363103250000007064277369194071956_);}
	.st18{fill:url(#SVGID_00000019670851603309198390000002546865291828524685_);}
	.st19{fill:url(#SVGID_00000017490360027082729740000004274969648895971240_);}
	.st20{fill:url(#SVGID_00000092439115970328490270000012250708079216223873_);}
	.st21{fill:url(#SVGID_00000072990002986043345780000008315680323952811928_);}
	.st22{fill:url(#SVGID_00000072979949762828941350000015673468018359996820_);}
	.st23{fill:url(#SVGID_00000078021255840462995090000003428799536161893287_);}
	.st24{fill:url(#SVGID_00000062151290592259278430000009563623779535682708_);}
	.st25{fill:url(#SVGID_00000139253612949467728610000006214712451144779709_);}
	.st26{fill:url(#SVGID_00000142151451296944058780000010787262505805344128_);}
	.st27{fill:url(#SVGID_00000099652583990943277010000016999093393454740875_);}
	.st28{fill:url(#SVGID_00000178922196924653662180000001408565247511384205_);}
	.st29{fill:url(#SVGID_00000065797403545110733620000011806379112656622735_);}
	.st30{fill:url(#SVGID_00000057846517907748391830000016324875412751443076_);}
	.st31{fill:url(#SVGID_00000106138244740086886250000001032874944519887272_);}
	.st32{fill:url(#SVGID_00000160893878342248960140000011423583755377674918_);}
	.st33{fill:url(#SVGID_00000003802035629168052770000015339589248911125648_);}
	.st34{fill:url(#SVGID_00000075126713395999803280000012018969774433292705_);}
	.st35{fill:url(#SVGID_00000043433556324971678840000018121446508236974993_);}
	.st36{fill:url(#SVGID_00000152986584216681553970000009725534974412270781_);}
	.st37{fill:url(#SVGID_00000137110641893383823980000000350773700316160439_);}
	.st38{fill:url(#SVGID_00000090276487784245900460000011851461838790146484_);}
	.st39{fill:url(#SVGID_00000087410635573847075290000005470086011581992616_);}
	.st40{fill:url(#SVGID_00000062167078103299222470000010229730774662880445_);}
	.st41{fill:url(#SVGID_00000002353886792881130270000007029203727280881304_);}
	.st42{fill:url(#SVGID_00000049944893719743121450000007963930761023709864_);}
	.st43{fill:url(#SVGID_00000176761262238174943590000011821538052795913602_);}
	.st44{fill:url(#SVGID_00000052785899619053708830000004031618348376071047_);}
	.st45{fill:#A35119;}
	.st46{fill:#025289;}
</style>
<g>
	<g>
		
			<linearGradient id="SVGID_1_" gradientUnits="userSpaceOnUse" x1="341.2967" y1="27.1156" x2="54.3315" y2="354.0385" gradientTransform="matrix(1 0 0 -1 0 377.0987)">
			<stop  offset="0" style="stop-color:#DAE3FE"/>
			<stop  offset="1" style="stop-color:#E9EFFD"/>
		</linearGradient>
		<path class="st0" d="M301.9,277.7c-57.8,61-146.6,42.9-159.7,40c-16.5-3.6-55.8-12.3-85.2-46.6c-44.9-52.5-40.4-134.6-5.7-190
			C61.4,65,95.4,17.1,159.2,6.7c3.7-0.6,70.4-10.4,124,34.6c7.2,6.1,18.9,17.1,29.1,33C344.1,124,359.1,217.4,301.9,277.7z"/>
		<g>
			<path class="st1" d="M176.7,21.8c0.7-3.2,4-5.1,7.1-4c20.3,7.3,90.6,31.3,151.3,39.3c2.8,0.4,4.7,2.9,4.3,5.7l-35.3,226.3
				c-0.5,3.1-3.4,5.2-6.5,4.8c-25.4-3.8-129.9-19.8-166-31.5c-2.2-0.7-3.5-3-3-5.2L176.7,21.8z"/>
			<path class="st2" d="M178,28c0.6-3.1,3.8-4.9,6.8-3.8c19.6,7,87.3,30.1,145.6,37.8c2.7,0.4,4.5,2.8,4.1,5.5l-33.9,217.6
				c-0.5,3-3.3,5-6.2,4.6c-24.4-3.7-125.1-19.1-159.7-30.3c-2.1-0.7-3.4-2.8-2.9-5L178,28z"/>
			<path class="st3" d="M197.1,45.9c-1.8-0.4-3.6,0.7-3.9,2.6l-7.6,46.6c-0.3,1.6,0.7,3,2.3,3.4c8.5,2,35,8.3,50.2,10.7
				c1.7,0.3,3.4-0.8,3.8-2.5c2.1-8.6,8.1-33.7,8.3-44.6c0-1.8-1.2-3.3-2.9-3.7L197.1,45.9z"/>
			
				<linearGradient id="SVGID_00000075876713881662766300000009679523119670471090_" gradientUnits="userSpaceOnUse" x1="977.0752" y1="1649.3872" x2="900.5449" y2="1535.4518" gradientTransform="matrix(0.9785 0.2062 0.2062 -0.9785 -1061.777 1468.4005)">
				<stop  offset="0" style="stop-color:#FDF53F"/>
				<stop  offset="1" style="stop-color:#D93C65"/>
			</linearGradient>
			<circle style="fill:url(#SVGID_00000075876713881662766300000009679523119670471090_);" cx="218.8" cy="71.1" r="10.1"/>
			
				<linearGradient id="SVGID_00000150103745266390409080000017603062571802044344_" gradientUnits="userSpaceOnUse" x1="990.2139" y1="1640.5604" x2="913.6852" y2="1526.6271" gradientTransform="matrix(0.9785 0.2062 0.2062 -0.9785 -1061.777 1468.4005)">
				<stop  offset="0" style="stop-color:#FDF53F"/>
				<stop  offset="1" style="stop-color:#D93C65"/>
			</linearGradient>
			<path style="fill:url(#SVGID_00000150103745266390409080000017603062571802044344_);" d="M197.6,97.1l31.6,6.7
				c1.9,0.4,3.6-1.5,2.9-3.3c-1.8-4.8-6.1-12.1-15.9-13.9c-9.4-1.7-16.2,2.7-19.8,6.1C194.8,94.1,195.5,96.7,197.6,97.1z"/>
			<g class="st6">
				<path class="st7" d="M318.8,79.2c1,0.2,1.9-0.3,2.1-1.2s-0.5-1.7-1.5-2l-55.2-12.7c-1-0.2-1.7,0.4-1.6,1.4l0.1,0.8
					c0.1,1,1.1,2,2,2.2L318.8,79.2z"/>
			</g>
			<g class="st6">
				<path class="st7" d="M262.3,72c-1-0.2-1.7,0.4-1.6,1.4l0.1,0.8c0.1,1,1.1,2,2,2.2l54,11.4c1,0.2,1.9-0.3,2.1-1.2s-0.5-1.7-1.5-2
					L262.3,72z"/>
			</g>
			<g class="st6">
				<path class="st7" d="M260.5,80.7c-1-0.2-1.7,0.4-1.6,1.4l0.1,0.8c0.1,1,1.1,2,2,2.2l54,11.4c1,0.2,1.9-0.3,2.1-1.2
					s-0.5-1.7-1.5-2L260.5,80.7z"/>
			</g>
			<g class="st6">
				<path class="st7" d="M311.6,139.7c1,0.2,1.9-0.3,2-1.2s-0.6-1.7-1.6-2l-129.6-28.4c-1-0.2-1.4,0.3-1,1.3l0.8,1.6
					c0.5,0.9,1.6,1.8,2.6,2L311.6,139.7z"/>
			</g>
			<g class="st6">
				<path class="st7" d="M180.7,116.8c-1-0.2-1.4,0.3-1,1.3l0.8,1.6c0.5,0.9,1.6,1.8,2.6,2l126.7,26.7c1,0.2,1.9-0.3,2-1.2
					s-0.6-1.7-1.6-2L180.7,116.8z"/>
			</g>
			<path class="st2" d="M177,131.1c3.2,0.4,9,1.5,12.3,2.2c1.4,0.3,2.4,1.4,2.4,2.8c0.1,2.7,0,7.4-1.1,12.1c-0.3,1.4-1.7,2.3-3.1,2
				l-11.8-2.6c-1.5-0.3-2.4-1.7-2.3-3.2l1.3-11.4C174.8,131.7,175.9,130.9,177,131.1z"/>
			<g class="st6">
				<path class="st7" d="M198,140.3c-1-0.2-1.8,0.4-1.9,1.4l-0.1,2c-0.1,1,0.7,2,1.7,2.2l28.8,6.1c1,0.2,2-0.4,2.2-1.4l0.1-0.5
					c0.2-1-0.4-2-1.4-2.3L198,140.3z"/>
			</g>
			<path class="st2" d="M241.7,144.7c3.2,0.4,9,1.5,12.3,2.2c1.4,0.3,2.4,1.4,2.4,2.8c0.1,2.7,0,7.4-1.1,12.1
				c-0.3,1.4-1.7,2.3-3.1,2l-11.8-2.6c-1.5-0.3-2.4-1.7-2.3-3.2l1.3-11.4C239.5,145.4,240.6,144.5,241.7,144.7z"/>
			<g class="st6">
				<path class="st7" d="M262.7,153.9c-1-0.2-1.8,0.4-1.9,1.4l-0.1,2c-0.1,1,0.7,2,1.7,2.2l28.8,6.1c1,0.2,2-0.4,2.2-1.4l0.1-0.5
					c0.2-1-0.4-2-1.4-2.3L262.7,153.9z"/>
			</g>
			<g>
				<path class="st7" d="M184.4,178.9L184.4,178.9l-11-2.4c-1.6-0.3-2.6-1.7-2.5-3.1l1-9.4c0.1-0.6,0.3-1,0.8-1.4s1.2-0.6,1.9-0.5
					l0,0c0.9,0.1,2.3,0.3,3.7,0.5c3,0.4,6.6,0.8,8.7,1.2c1.5,0.3,2.5,1.4,2.6,2.8c0.1,2.2-0.8,6.2-1.8,10.4
					C187.5,178.4,186,179.2,184.4,178.9z M174.5,162.9c-0.4-0.1-0.9,0-1.2,0.3c-0.3,0.2-0.4,0.5-0.5,0.8l-1,9.4
					c-0.1,1,0.7,2,1.8,2.2l10.9,2.4l0,0c1.1,0.2,2.1-0.3,2.3-1.3c1-4.2,1.9-8.1,1.7-10.2c-0.1-0.9-0.9-1.8-1.9-2
					c-2-0.4-5.7-0.8-8.6-1.2C176.8,163.2,175.4,163.1,174.5,162.9L174.5,162.9z"/>
				<path class="st2" d="M175.5,164.1c2.3,0.3,7.4,0.9,9.8,1.3c1,0.2,1.8,1,1.8,1.9c0.1,1.8-0.7,5.2-1.4,8.3
					c-0.2,0.9-1.2,1.5-2.3,1.3l-8.7-1.9c-1.1-0.2-1.8-1.2-1.7-2.1l0.8-7.5C173.8,164.5,174.6,164,175.5,164.1z"/>
				<g class="st6">
					<path class="st7" d="M195.4,174.8c0.1,1.3,1,2.3,2.2,2.6l101.6,20.5c1.1,0.2,2.3-0.5,2.5-1.7c0.2-1.1-0.5-2.2-1.6-2.4
						L198.8,172C196.9,171.6,195.3,173,195.4,174.8z"/>
				</g>
				
					<linearGradient id="SVGID_00000181080345284113901320000010927587686331469966_" gradientUnits="userSpaceOnUse" x1="975.1167" y1="1576.3137" x2="917.9338" y2="1478.7159" gradientTransform="matrix(0.9785 0.2062 0.2062 -0.9785 -1061.777 1468.4005)">
					<stop  offset="0" style="stop-color:#A737D5"/>
					<stop  offset="1" style="stop-color:#EF497A"/>
				</linearGradient>
				<path style="fill:url(#SVGID_00000181080345284113901320000010927587686331469966_);" d="M175.6,165.7L175.6,165.7
					c0.9-0.3,1.9,0.2,2.2,1.1l1.3,4.3c0.1,0.4,0.7,0.5,1,0.2l7.9-10.8c0.4-0.5,1.2-0.2,1.1,0.5c-0.8,3.6-3.3,10.4-10.3,15
					c0,0-3-1.9-4.3-8.2C174.3,166.9,174.8,166,175.6,165.7z"/>
				<path class="st7" d="M179.5,202.4L179.5,202.4l-11-2.4c-1.6-0.3-2.6-1.7-2.5-3.1l1-9.4c0.1-0.6,0.3-1,0.8-1.4s1.2-0.6,1.9-0.5
					l0,0c0.9,0.1,2.3,0.3,3.7,0.5c3,0.4,6.6,0.8,8.7,1.2l0,0c1.4,0.3,2.5,1.4,2.6,2.8c0.1,2.2-0.8,6.2-1.8,10.4
					C182.5,201.9,181,202.7,179.5,202.4z M169.6,186.4c-0.4-0.1-0.9,0-1.2,0.3c-0.3,0.2-0.4,0.5-0.5,0.8l-1,9.4
					c-0.1,1,0.7,2,1.8,2.2l10.9,2.4l0,0c1.1,0.2,2.1-0.3,2.3-1.3c1-4.2,1.9-8.1,1.7-10.2c-0.1-0.9-0.9-1.8-1.9-2
					c-2-0.4-5.7-0.8-8.6-1.2C171.8,186.7,170.5,186.5,169.6,186.4L169.6,186.4z"/>
				<path class="st2" d="M170.5,187.6c2.3,0.3,7.4,0.9,9.8,1.3c1,0.2,1.8,1,1.8,1.9c0.1,1.8-0.7,5.2-1.4,8.3
					c-0.2,0.9-1.2,1.5-2.3,1.3l-8.7-1.9c-1.1-0.2-1.8-1.2-1.7-2.1l0.8-7.5C168.9,188,169.7,187.5,170.5,187.6z"/>
				<g class="st6">
					<path class="st7" d="M190.4,198.3c0.1,1.3,1,2.3,2.2,2.6l101.6,20.5c1.1,0.2,2.3-0.5,2.5-1.7c0.2-1.1-0.5-2.2-1.6-2.4
						l-101.3-21.8C192,195.1,190.3,196.5,190.4,198.3z"/>
				</g>
				
					<linearGradient id="SVGID_00000124133187381963864580000004010168296499803809_" gradientUnits="userSpaceOnUse" x1="985.5911" y1="1570.1765" x2="928.4081" y2="1472.5786" gradientTransform="matrix(0.9785 0.2062 0.2062 -0.9785 -1061.777 1468.4005)">
					<stop  offset="0" style="stop-color:#A737D5"/>
					<stop  offset="1" style="stop-color:#EF497A"/>
				</linearGradient>
				<path style="fill:url(#SVGID_00000124133187381963864580000004010168296499803809_);" d="M170.7,189.2L170.7,189.2
					c0.9-0.3,1.9,0.2,2.2,1.1l1.3,4.3c0.1,0.4,0.7,0.5,1,0.2l7.9-10.8c0.4-0.5,1.2-0.2,1.1,0.5c-0.8,3.6-3.3,10.4-10.3,15
					c0,0-3-1.9-4.3-8.2C169.3,190.4,169.8,189.4,170.7,189.2z"/>
				<path class="st7" d="M174.6,225.9C174.5,225.9,174.5,225.9,174.6,225.9l-11-2.4c-1.6-0.3-2.6-1.7-2.5-3.1l1-9.4
					c0.1-0.6,0.3-1.1,0.8-1.4c0.5-0.4,1.2-0.6,1.9-0.5l0,0c0.9,0.1,2.3,0.3,3.7,0.5c3,0.4,6.6,0.8,8.7,1.2l0,0
					c1.4,0.3,2.5,1.4,2.6,2.8c0.1,2.2-0.8,6.2-1.8,10.4C177.6,225.3,176.1,226.2,174.6,225.9z M164.6,209.9c-0.4-0.1-0.9,0-1.2,0.3
					c-0.3,0.2-0.4,0.5-0.5,0.8l-1,9.4c-0.1,1,0.7,2,1.8,2.2l10.9,2.4l0,0c1.1,0.2,2.1-0.3,2.3-1.3c1-4.2,1.9-8.1,1.7-10.2
					c-0.1-0.9-0.9-1.8-1.9-2c-2-0.4-5.7-0.8-8.6-1.2C166.9,210.2,165.5,210,164.6,209.9L164.6,209.9z"/>
				<path class="st2" d="M165.6,211.1c2.3,0.3,7.4,0.9,9.8,1.3c1,0.2,1.8,1,1.8,1.9c0.1,1.8-0.7,5.2-1.4,8.3
					c-0.2,0.9-1.2,1.5-2.3,1.3l-8.7-1.9c-1.1-0.2-1.8-1.2-1.7-2.1l0.8-7.5C163.9,211.5,164.7,211,165.6,211.1z"/>
				<g class="st6">
					<path class="st7" d="M185.5,221.8c0.1,1.3,1,2.3,2.2,2.6l101.6,20.5c1.1,0.2,2.3-0.5,2.5-1.7c0.2-1.1-0.5-2.2-1.6-2.4
						L188.9,219C187,218.6,185.4,220,185.5,221.8z"/>
				</g>
				
					<linearGradient id="SVGID_00000061473180737239431130000008556286723135363969_" gradientUnits="userSpaceOnUse" x1="994.3473" y1="1546.1464" x2="919.1065" y2="1441.2393" gradientTransform="matrix(0.9785 0.2062 0.2062 -0.9785 -1061.777 1468.4005)">
					<stop  offset="0" style="stop-color:#A737D5"/>
					<stop  offset="1" style="stop-color:#EF497A"/>
				</linearGradient>
				<path style="fill:url(#SVGID_00000061473180737239431130000008556286723135363969_);" d="M165.7,212.6L165.7,212.6
					c0.9-0.3,1.9,0.2,2.2,1.1l1.3,4.3c0.1,0.4,0.7,0.5,1,0.2l7.9-10.8c0.4-0.5,1.2-0.2,1.1,0.5c-0.8,3.6-3.3,10.4-10.3,15
					c0,0-3-1.9-4.3-8.2C164.4,213.8,164.9,212.9,165.7,212.6z"/>
				<path class="st7" d="M169.6,249.4L169.6,249.4l-11-2.4c-1.6-0.3-2.6-1.7-2.5-3.1l1-9.4c0.1-0.6,0.3-1.1,0.8-1.4
					c0.5-0.4,1.2-0.6,1.9-0.5l0,0c0.9,0.1,2.3,0.3,3.7,0.5c3,0.4,6.6,0.8,8.7,1.2l0,0c1.4,0.3,2.5,1.4,2.6,2.8
					c0.1,2.2-0.8,6.2-1.8,10.4C172.6,248.8,171.1,249.7,169.6,249.4z M159.7,233.4c-0.4-0.1-0.9,0-1.2,0.3c-0.3,0.2-0.4,0.5-0.5,0.8
					l-1,9.4c-0.1,1,0.7,2,1.8,2.2l10.9,2.4l0,0c1.1,0.2,2.1-0.3,2.3-1.3c1-4.2,1.9-8.1,1.7-10.2c-0.1-0.9-0.9-1.8-1.9-2
					c-2-0.4-5.7-0.8-8.6-1.2C161.9,233.7,160.6,233.5,159.7,233.4L159.7,233.4z"/>
				<path class="st2" d="M160.6,234.6c2.3,0.3,7.4,0.9,9.8,1.3c1,0.2,1.8,1,1.8,1.9c0.1,1.8-0.7,5.2-1.4,8.3
					c-0.2,0.9-1.2,1.5-2.3,1.3l-8.7-1.9c-1.1-0.2-1.8-1.2-1.7-2.1l0.8-7.5C159,235,159.8,234.5,160.6,234.6z"/>
				<g class="st6">
					<path class="st7" d="M180.5,245.3L180.5,245.3c0.1,1.3,1,2.3,2.2,2.6l101.6,20.5c1.1,0.2,2.3-0.5,2.5-1.7
						c0.2-1.1-0.5-2.2-1.6-2.4l-101.3-21.8C182.1,242,180.4,243.5,180.5,245.3z"/>
				</g>
				
					<linearGradient id="SVGID_00000109711246455556563440000015730468577879402135_" gradientUnits="userSpaceOnUse" x1="1006.499" y1="1557.926" x2="949.3162" y2="1460.3281" gradientTransform="matrix(0.9785 0.2062 0.2062 -0.9785 -1061.777 1468.4005)">
					<stop  offset="0" style="stop-color:#A737D5"/>
					<stop  offset="1" style="stop-color:#EF497A"/>
				</linearGradient>
				<path style="fill:url(#SVGID_00000109711246455556563440000015730468577879402135_);" d="M160.8,236.1L160.8,236.1
					c0.9-0.3,1.9,0.2,2.2,1.1l1.3,4.3c0.1,0.4,0.7,0.5,1,0.2l7.9-10.8c0.4-0.5,1.2-0.2,1.1,0.5c-0.8,3.6-3.3,10.4-10.3,15
					c0,0-3-1.9-4.3-8.2C159.4,237.3,159.9,236.4,160.8,236.1z"/>
			</g>
		</g>
		<g>
			<path class="st1" d="M23.9,52.3c-0.7-3.2,1.6-6.2,4.9-6.5c21.6-1.4,95.7-7.3,154.5-24c2.7-0.8,5.5,0.8,6.2,3.5l57.4,221.8
				c0.8,3-1,6.1-4.1,6.9C218,260.6,115.7,287.4,78,291c-2.3,0.2-4.4-1.3-4.9-3.6L23.9,52.3z"/>
			<path class="st2" d="M27.5,57.5c-0.6-3.1,1.6-6,4.7-6.2c20.8-1.4,92-7,148.7-23.1c2.6-0.7,5.3,0.8,5.9,3.4l55.3,213.3
				c0.8,2.9-1,5.9-3.9,6.7c-23.9,6.3-122.4,32.1-158.6,35.6c-2.2,0.2-4.2-1.3-4.7-3.4L27.5,57.5z"/>
			<path class="st3" d="M49.6,70.3l11.6,45.8c0.4,1.5,1.9,2.5,3.4,2.2c8.6-1.5,35.4-6.3,50.3-10.1c1.7-0.4,2.8-2.1,2.5-3.8
				c-1.5-8.7-6-34.1-10.1-44.2c-0.7-1.6-2.4-2.6-4.1-2.3l-51,8.5C50.3,66.7,49.2,68.5,49.6,70.3z"/>
			
				<ellipse transform="matrix(6.799145e-02 -0.9977 0.9977 6.799145e-02 -4.2137 157.327)" class="st1" cx="82.1" cy="80.9" rx="10.1" ry="10.1"/>
			<path class="st1" d="M72.9,113.2l31.7-6.4c1.9-0.4,2.7-2.8,1.3-4.2c-3.5-3.7-10.4-8.7-20.1-6.4c-9.3,2.2-13.8,8.9-15.8,13.5
				C69.2,111.5,70.9,113.6,72.9,113.2z"/>
			<g class="st6">
				<path class="st7" d="M177.1,48.6c1-0.2,1.6-1.1,1.4-1.9c-0.2-0.8-1.2-1.4-2.2-1.2l-55.7,10.3c-1,0.2-1.4,1-0.9,1.9l0.4,0.7
					c0.5,0.9,1.8,1.4,2.7,1.2L177.1,48.6z"/>
			</g>
			<g class="st6">
				<path class="st7" d="M122.4,64.4c-1,0.2-1.4,1-0.9,1.9l0.4,0.7c0.5,0.9,1.8,1.4,2.7,1.2l54.1-11c1-0.2,1.6-1.1,1.4-1.9
					c-0.2-0.8-1.2-1.4-2.2-1.2L122.4,64.4z"/>
			</g>
			<g class="st6">
				<path class="st7" d="M124.2,73.1c-1,0.2-1.4,1-0.9,1.9l0.4,0.7c0.5,0.9,1.8,1.4,2.7,1.2l54.1-11c1-0.2,1.6-1.1,1.4-1.9
					c-0.2-0.8-1.2-1.4-2.2-1.2L124.2,73.1z"/>
			</g>
			<g class="st6">
				<path class="st7" d="M194.5,107c1-0.2,1.6-1.1,1.4-1.9c-0.2-0.8-1.2-1.4-2.2-1.2L63.5,129.3c-1,0.2-1.2,0.9-0.4,1.5l1.3,1.1
					c0.8,0.7,2.2,1,3.2,0.8L194.5,107z"/>
			</g>
			<g class="st6">
				<path class="st7" d="M65.2,138c-1,0.2-1.2,0.9-0.4,1.5l1.3,1.1c0.8,0.7,2.2,1,3.2,0.8l126.9-25.8c1-0.2,1.6-1.1,1.4-1.9
					c-0.2-0.8-1.2-1.4-2.2-1.2L65.2,138z"/>
			</g>
			<path class="st2" d="M67.6,152.5c3.1-0.9,8.9-2.2,12.1-2.9c1.4-0.3,2.7,0.4,3.3,1.6c1.1,2.5,2.9,6.8,3.8,11.5
				c0.3,1.4-0.7,2.8-2.1,3.1l-11.9,2.3c-1.5,0.3-2.9-0.6-3.3-2l-3.3-11C65.8,154,66.4,152.8,67.6,152.5z"/>
			<g class="st6">
				<path class="st7" d="M90.5,152.6c-1,0.2-1.5,1.1-1.2,2l0.7,1.9c0.3,1,1.4,1.6,2.4,1.4l28.9-5.9c1-0.2,1.6-1.2,1.4-2.2l-0.1-0.5
					c-0.2-1-1.2-1.7-2.2-1.5L90.5,152.6z"/>
			</g>
			<path class="st2" d="M132.4,139.3c3.1-0.9,8.9-2.2,12.1-2.9c1.4-0.3,2.7,0.4,3.3,1.6c1.1,2.5,2.9,6.8,3.8,11.5
				c0.3,1.4-0.7,2.8-2.1,3.1l-11.9,2.3c-1.5,0.3-2.9-0.6-3.3-2l-3.3-11C130.6,140.8,131.2,139.6,132.4,139.3z"/>
			<g class="st6">
				<path class="st7" d="M155.3,139.4c-1,0.2-1.5,1.1-1.2,2l0.7,1.9c0.3,1,1.4,1.6,2.4,1.4l28.9-5.9c1-0.2,1.6-1.2,1.4-2.2l-0.1-0.5
					c-0.2-1-1.2-1.7-2.2-1.5L155.3,139.4z"/>
			</g>
			<g>
				<path class="st7" d="M93.4,193.5C93.3,193.5,93.3,193.5,93.4,193.5l-11,2.1c-1.6,0.3-3.1-0.5-3.5-1.9l-2.8-9
					c-0.2-0.5-0.1-1.1,0.2-1.6c0.3-0.6,0.9-1,1.5-1.2l0,0c0.9-0.3,2.2-0.6,3.5-1c2.9-0.8,6.4-1.9,8.4-2.3c1.5-0.3,2.9,0.3,3.5,1.5
					c1,2,1.8,6,2.5,10.3C95.9,191.8,94.9,193.1,93.4,193.5z M77.9,182.7c-0.4,0.1-0.8,0.4-1,0.8c-0.2,0.3-0.2,0.6-0.1,0.9l2.8,9
					c0.3,1,1.4,1.5,2.5,1.3l11-2.1l0,0c1.1-0.2,1.8-1.1,1.6-2.1c-0.7-4.2-1.5-8.2-2.4-10.1c-0.4-0.8-1.5-1.3-2.6-1.1
					c-2,0.4-5.5,1.5-8.4,2.3C80.1,182.1,78.8,182.5,77.9,182.7L77.9,182.7z"/>
				<path class="st2" d="M79.3,183.4c2.3-0.6,7.2-2.2,9.6-2.7c1-0.2,2,0.2,2.4,1c0.8,1.6,1.4,5,2,8.1c0.2,0.9-0.5,1.9-1.6,2.1
					l-8.8,1.7c-1.1,0.2-2.1-0.3-2.4-1.3l-2.3-7.2C77.9,184.5,78.4,183.7,79.3,183.4z"/>
				<g class="st6">
					<path class="st7" d="M101.8,185.4c0.6,1.1,1.8,1.8,3.1,1.5l101.4-21.5c1.1-0.2,1.9-1.4,1.6-2.5c-0.3-1.1-1.3-1.8-2.5-1.6
						l-101.6,20.2C101.9,181.8,100.9,183.7,101.8,185.4z"/>
				</g>
				<path class="st7" d="M98.1,217L98.1,217l-11,2.1c-1.6,0.3-3.1-0.5-3.5-1.9l-2.8-9c-0.2-0.5-0.1-1.1,0.2-1.6
					c0.3-0.6,0.9-1,1.5-1.2l0,0c0.9-0.3,2.2-0.6,3.5-1c2.9-0.8,6.4-1.9,8.4-2.3l0,0c1.4-0.3,2.9,0.3,3.5,1.5c1,2,1.8,6,2.5,10.3
					C100.7,215.3,99.7,216.7,98.1,217z M82.7,206.3c-0.4,0.1-0.8,0.4-1,0.8c-0.2,0.3-0.2,0.6-0.1,0.9l2.8,9c0.3,1,1.4,1.5,2.5,1.3
					l11-2.1l0,0c1.1-0.2,1.8-1.1,1.6-2.1c-0.7-4.2-1.5-8.2-2.4-10.1c-0.4-0.8-1.5-1.3-2.6-1.1c-2,0.4-5.5,1.5-8.4,2.3
					C84.9,205.6,83.6,206,82.7,206.3L82.7,206.3z"/>
				<path class="st2" d="M84,207c2.3-0.6,7.2-2.2,9.6-2.7c1-0.2,2,0.2,2.4,1c0.8,1.6,1.4,5,2,8.1c0.2,0.9-0.5,1.9-1.6,2.1l-8.8,1.7
					c-1.1,0.2-2.1-0.3-2.4-1.3l-2.3-7.2C82.7,208,83.2,207.2,84,207z"/>
				<g class="st6">
					<path class="st7" d="M106.5,208.9c0.6,1.1,1.8,1.8,3.1,1.5L211,188.9c1.1-0.2,1.9-1.4,1.6-2.5c-0.3-1.1-1.3-1.8-2.5-1.6
						L108.5,205C106.7,205.3,105.7,207.3,106.5,208.9z"/>
				</g>
				<path class="st7" d="M102.9,240.5L102.9,240.5l-11,2.1c-1.6,0.3-3.1-0.5-3.5-1.9l-2.8-9c-0.2-0.5-0.1-1.1,0.2-1.6
					c0.3-0.6,0.9-1,1.5-1.2l0,0c0.9-0.3,2.2-0.6,3.5-1c2.9-0.8,6.4-1.9,8.4-2.3l0,0c1.4-0.3,2.9,0.3,3.5,1.5c1,2,1.8,6,2.5,10.3
					C105.5,238.8,104.4,240.2,102.9,240.5z M87.4,229.8c-0.4,0.1-0.8,0.4-1,0.8c-0.2,0.3-0.2,0.6-0.1,0.9l2.8,9
					c0.3,1,1.4,1.5,2.5,1.3l11-2.1l0,0c1.1-0.2,1.8-1.1,1.6-2.1c-0.7-4.2-1.5-8.2-2.4-10.1c-0.4-0.8-1.5-1.3-2.6-1.1
					c-2,0.4-5.5,1.5-8.4,2.3C89.6,229.1,88.4,229.5,87.4,229.8L87.4,229.8z"/>
				<path class="st2" d="M88.8,230.5c2.3-0.6,7.2-2.2,9.6-2.7c1-0.2,2,0.2,2.4,1c0.8,1.6,1.4,5,2,8.1c0.2,0.9-0.5,1.9-1.6,2.1
					l-8.8,1.7c-1.1,0.2-2.1-0.3-2.4-1.3l-2.3-7.2C87.5,231.5,88,230.7,88.8,230.5z"/>
				<g class="st6">
					<path class="st7" d="M111.3,232.4c0.6,1.1,1.8,1.8,3.1,1.5l101.4-21.5c1.1-0.2,1.9-1.4,1.6-2.5c-0.3-1.1-1.3-1.8-2.5-1.6
						l-101.6,20.2C111.5,228.8,110.5,230.8,111.3,232.4z"/>
				</g>
				<path class="st7" d="M107.7,264L107.7,264l-11,2.1c-1.6,0.3-3.1-0.5-3.5-1.9l-2.8-9c-0.2-0.5-0.1-1.1,0.2-1.6
					c0.3-0.6,0.9-1,1.5-1.2l0,0c0.9-0.3,2.2-0.6,3.5-1c2.9-0.8,6.4-1.9,8.4-2.3l0,0c1.4-0.3,2.9,0.3,3.5,1.5c1,2,1.8,6,2.5,10.3
					C110.2,262.3,109.2,263.7,107.7,264z M92.2,253.3c-0.4,0.1-0.8,0.4-1,0.8c-0.2,0.3-0.2,0.6-0.1,0.9l2.8,9c0.3,1,1.4,1.5,2.5,1.3
					l11-2.1l0,0c1.1-0.2,1.8-1.1,1.6-2.1c-0.7-4.2-1.5-8.2-2.4-10.1c-0.4-0.8-1.5-1.3-2.6-1.1c-2,0.4-5.5,1.5-8.4,2.3
					C94.4,252.7,93.1,253,92.2,253.3L92.2,253.3z"/>
				<path class="st2" d="M93.6,254c2.3-0.6,7.2-2.2,9.6-2.7c1-0.2,2,0.2,2.4,1c0.8,1.6,1.4,5,2,8.1c0.2,0.9-0.5,1.9-1.6,2.1
					l-8.8,1.7c-1.1,0.2-2.1-0.3-2.4-1.3l-2.3-7.2C92.2,255,92.7,254.2,93.6,254z"/>
				<g class="st6">
					<path class="st7" d="M116.1,255.9L116.1,255.9c0.6,1.1,1.8,1.8,3.1,1.5l101.4-21.5c1.1-0.2,1.9-1.4,1.6-2.5
						c-0.3-1.1-1.3-1.8-2.5-1.6L118,252C116.2,252.3,115.3,254.3,116.1,255.9z"/>
				</g>
				
					<linearGradient id="SVGID_00000138557442155607518460000000888560066842888877_" gradientUnits="userSpaceOnUse" x1="-839.954" y1="-908.5211" x2="-897.1359" y2="-1006.117" gradientTransform="matrix(0.98 -0.199 -0.199 -0.98 779.8491 -912.9373)">
					<stop  offset="0" style="stop-color:#A737D5"/>
					<stop  offset="1" style="stop-color:#EF497A"/>
				</linearGradient>
				<path style="fill:url(#SVGID_00000138557442155607518460000000888560066842888877_);" d="M94.3,255.4L94.3,255.4
					c0.7-0.6,1.8-0.6,2.5,0.2l3,3.4c0.3,0.3,0.9,0.2,1-0.2l2.9-13c0.1-0.7,1.1-0.6,1.2,0c0.7,3.7,1.1,10.8-3.5,17.8
					c0,0-3.5-0.6-7.2-5.8C93.6,257,93.7,256,94.3,255.4z"/>
			</g>
		</g>
		<g>
			<g>
				<path class="st1" d="M89.6,244.1c1,10.6,3.4,24.5,6.2,36.6h1.8c-3.7-14.5-7.1-34.4-6.1-57.3c1-23.1,6.7-51.2-3.9-64.6
					c-8.8-11.2-46.1-12.8-58.3-13.1c-1.5,0-2.4,1.7-1.5,2.9c4.7,5.9,14.5,19.6,15.4,31.6c1.1,15.8,13.4,28.1,25.6,33.3
					C81,218.7,87.6,222.6,89.6,244.1z"/>
				<path class="st13" d="M44.7,155.5c7.5,1.9,14.7,5.4,20.9,10.1c3.1,2.3,6,5.1,8.4,8.2c2.4,3.1,4.4,6.5,5.9,10.2l0.5,1.4
					c0.2,0.5,0.3,0.9,0.4,1.4s0.3,0.9,0.4,1.4l0.4,1.4c0.5,1.9,1,3.7,1.5,5.6c1,3.7,1.8,7.5,2.7,11.3c1.7,7.6,3.1,15.2,4.1,22.8
					c0,0.2-0.1,0.4-0.3,0.4c-0.2,0-0.3-0.1-0.4-0.3l0,0c-0.7-3.8-1.4-7.6-2.3-11.3c-0.8-3.8-1.7-7.5-2.6-11.3l-1.4-5.6l-1.4-5.6
					c-0.5-1.9-1-3.7-1.5-5.6l-0.4-1.4c-0.1-0.5-0.3-0.9-0.4-1.4c-0.1-0.4-0.3-0.9-0.4-1.4l-0.5-1.3c-1.3-3.5-3.3-6.8-5.6-9.8
					c-1.2-1.5-2.4-2.9-3.8-4.3l-0.5-0.5l-0.5-0.5c-0.3-0.3-0.7-0.7-1-1c-0.7-0.6-1.4-1.3-2.2-1.8c-3-2.4-6.2-4.4-9.6-6.2
					c-3.4-1.8-6.9-3.3-10.6-4.4l0,0c-0.1,0-0.2-0.2-0.2-0.3C44.4,155.5,44.5,155.4,44.7,155.5z"/>
			</g>
			<g>
				<path class="st1" d="M90,258.5c6.4,9.4,5.6,14.6,5.8,19c0,0.8,0.1,1.9,0.2,3.2h1.7c-0.4-1.8-0.6-3.6-0.7-5.4
					c-0.6-12.3-3.4-33.2-14-45.7s-22.1-13.7-36.7-2.3c-12.2,9.5-19.7,14.3-24.2,15.1c-1.1,0.2-1.7,1.5-1.1,2.4
					c2.9,5.3,10.9,17.3,24.4,16.5C62.7,260.3,83.6,249.1,90,258.5z"/>
				<path class="st13" d="M51.2,242.4c1-0.9,2-1.7,3-2.5s2.1-1.5,3.2-2.2c2.2-1.4,4.6-2.6,7.1-3.4c1.3-0.4,2.6-0.7,3.9-0.9
					c1.3-0.2,2.7-0.2,4.1,0c0.3,0.1,0.7,0.1,1,0.2s0.7,0.1,1,0.2l1.9,0.6l1.9,0.7l1.8,0.9c2.4,1.2,4.5,2.9,6.3,4.9s3.2,4.3,4.4,6.6
					l0.4,0.9c0.1,0.3,0.3,0.6,0.4,0.9c0.2,0.6,0.5,1.2,0.7,1.8l0.6,1.9c0.2,0.6,0.4,1.3,0.6,1.9c0.7,2.5,1.2,5.1,1.7,7.6
					c0,0.1-0.1,0.3-0.2,0.3s-0.3-0.1-0.3-0.2l0,0c-0.6-2.5-1.2-5-2-7.5c-0.4-1.2-0.9-2.4-1.3-3.6c-0.2-0.6-0.5-1.2-0.8-1.8
					c-0.1-0.3-0.2-0.6-0.4-0.9l-0.4-0.8c-1.2-2.3-2.6-4.4-4.3-6.2c-1.7-1.8-3.7-3.4-6-4.5l-1.7-0.8l-1.8-0.7l-1.8-0.6
					c-0.3-0.1-0.6-0.1-0.9-0.2s-0.6-0.1-0.9-0.2c-1.2-0.2-2.5-0.1-3.7,0s-2.5,0.4-3.7,0.7c-2.4,0.7-4.8,1.8-7,3
					c-1.1,0.6-2.2,1.3-3.3,2s-2.1,1.4-3.1,2.2l0,0c-0.1,0.1-0.3,0.1-0.4,0C51.1,242.7,51.1,242.5,51.2,242.4z"/>
			</g>
		</g>
		<g>
			
				<linearGradient id="SVGID_00000031207054088211442970000004321888789706204859_" gradientUnits="userSpaceOnUse" x1="185.9954" y1="90.1663" x2="172.4108" y2="492.2792" gradientTransform="matrix(1 0 0 -1 0 377.0987)">
				<stop  offset="0" style="stop-color:#09005D"/>
				<stop  offset="1" style="stop-color:#1A0F91"/>
			</linearGradient>
			<path style="fill:url(#SVGID_00000031207054088211442970000004321888789706204859_);" d="M90.4,75.1c0-9.6,7.8-17.4,17.4-17.4
				h147.7c8.1,0,14.9,6.4,15.3,14.5l10.9,214.1c0.3,6.4-4.7,11.7-11.1,11.9l-169.3,3.1c-6,0.1-10.9-4.7-10.9-10.7L90.4,75.1
				L90.4,75.1z"/>
			<g>
				<path class="st1" d="M102.5,61c0-3.1,2.7-5.4,5.7-5c20.2,2.7,89.5,11.2,146.9,6.8c2.6-0.2,4.9,1.8,5,4.4l11.4,215.1
					c0.2,2.9-2.1,5.5-5,5.6c-24.1,1.4-123.4,6.9-158.9,3.2c-2.2-0.2-3.8-2-3.8-4.2L102.5,61z"/>
				<path class="st2" d="M104.8,66.4c0-3,2.6-5.2,5.5-4.8c19.4,2.6,86.2,10.8,141.3,6.5c2.5-0.2,4.7,1.7,4.8,4.2l11,207
					c0.2,2.8-2,5.3-4.9,5.4c-23.2,1.4-118.8,6.7-152.9,3.1c-2.1-0.2-3.7-2-3.7-4.1L104.8,66.4z"/>
				<path class="st3" d="M122.8,82.3l2.1,44.4c0.1,1.5,1.3,2.6,2.7,2.7c8.2,0.2,33.8,0.9,48.3,0.1c1.6-0.1,2.9-1.4,3-3
					c0.3-8.3,0.9-32.5-1-42.7c-0.3-1.6-1.7-2.8-3.4-2.9l-48.6-1.7C124.1,79.1,122.7,80.6,122.8,82.3z"/>
				
					<linearGradient id="SVGID_00000042709596537518722110000000528256541460130223_" gradientUnits="userSpaceOnUse" x1="137.5062" y1="302.0109" x2="182.7892" y2="223.2184" gradientTransform="matrix(1 0 0 -1 0 377.0987)">
					<stop  offset="0" style="stop-color:#FF928E"/>
					<stop  offset="1" style="stop-color:#FE7062"/>
				</linearGradient>
				<circle style="fill:url(#SVGID_00000042709596537518722110000000528256541460130223_);" cx="150.8" cy="98.2" r="9.5"/>
				
					<linearGradient id="SVGID_00000128446335888210489170000011552671262165763475_" gradientUnits="userSpaceOnUse" x1="126.9251" y1="295.9298" x2="172.2081" y2="217.1372" gradientTransform="matrix(1 0 0 -1 0 377.0987)">
					<stop  offset="0" style="stop-color:#FF928E"/>
					<stop  offset="1" style="stop-color:#FE7062"/>
				</linearGradient>
				<path style="fill:url(#SVGID_00000128446335888210489170000011552671262165763475_);" d="M136.3,126.2h30.4c1.9,0,3-2.1,2-3.6
					c-2.6-4-8-10-17.3-9.7c-9,0.3-14.4,5.6-17,9.5C133.1,124,134.3,126.2,136.3,126.2z"/>
				<g class="st6">
					<path class="st7" d="M244.3,86.2c1,0,1.7-0.7,1.7-1.5s-0.8-1.5-1.8-1.5l-53.3-0.9c-1,0-1.5,0.7-1.2,1.6l0.3,0.7
						c0.3,0.9,1.4,1.6,2.3,1.6L244.3,86.2L244.3,86.2z"/>
				</g>
				<g class="st6">
					<path class="st7" d="M191,90.5c-1,0-1.5,0.7-1.2,1.6l0.3,0.7c0.3,0.9,1.4,1.6,2.3,1.6h52c1,0,1.7-0.7,1.7-1.5s-0.8-1.5-1.8-1.5
						L191,90.5z"/>
				</g>
				<g class="st6">
					<path class="st7" d="M191,98.9c-1,0-1.5,0.7-1.2,1.6l0.3,0.7c0.3,0.9,1.4,1.6,2.3,1.6h52c1,0,1.7-0.7,1.7-1.5s-0.8-1.5-1.8-1.5
						L191,98.9z"/>
				</g>
				<g class="st6">
					<path class="st7" d="M249.5,143.4c1,0,1.7-0.7,1.6-1.5c-0.1-0.8-0.9-1.5-1.8-1.5l-124.8-1c-1,0-1.2,0.6-0.7,1.3l1,1.3
						c0.6,0.7,1.9,1.4,2.8,1.4H249.5z"/>
				</g>
				<g class="st6">
					<path class="st7" d="M124.5,147.7c-1,0-1.2,0.6-0.7,1.3l1,1.3c0.6,0.7,1.9,1.4,2.8,1.4h121.8c1,0,1.7-0.7,1.6-1.5
						c-0.1-0.8-0.9-1.5-1.8-1.5L124.5,147.7z"/>
				</g>
				
					<linearGradient id="SVGID_00000127003732599992061300000015657968836017367168_" gradientUnits="userSpaceOnUse" x1="106.312" y1="227.7384" x2="248.501" y2="114.078" gradientTransform="matrix(1 0 0 -1 0 377.0987)">
					<stop  offset="0" style="stop-color:#4F52FF"/>
					<stop  offset="1" style="stop-color:#4042E2"/>
				</linearGradient>
				<path style="fill:url(#SVGID_00000127003732599992061300000015657968836017367168_);" d="M124,161.5c3-0.2,8.6-0.3,11.7-0.4
					c1.3,0,2.5,0.9,2.8,2.1c0.6,2.5,1.4,6.8,1.3,11.3c0,1.4-1.1,2.5-2.5,2.4l-11.4-0.1c-1.4,0-2.6-1.1-2.7-2.5l-1-10.7
					C122,162.5,122.8,161.5,124,161.5z"/>
				<g class="st6">
					<path class="st7" d="M145.1,165.9c-1,0-1.6,0.7-1.5,1.6l0.3,1.8c0.1,0.9,1,1.7,2,1.7h27.7c1,0,1.7-0.8,1.7-1.7v-0.5
						c0-1-0.8-1.8-1.8-1.8L145.1,165.9z"/>
				</g>
				
					<linearGradient id="SVGID_00000168813581792446826410000013747320918993259918_" gradientUnits="userSpaceOnUse" x1="130.5226" y1="258.0257" x2="272.7116" y2="144.3653" gradientTransform="matrix(1 0 0 -1 0 377.0987)">
					<stop  offset="0" style="stop-color:#4F52FF"/>
					<stop  offset="1" style="stop-color:#4042E2"/>
				</linearGradient>
				<path style="fill:url(#SVGID_00000168813581792446826410000013747320918993259918_);" d="M186.1,161.5c3-0.2,8.6-0.3,11.7-0.4
					c1.3,0,2.5,0.9,2.8,2.1c0.6,2.5,1.4,6.8,1.3,11.3c0,1.4-1.1,2.5-2.5,2.4l-11.4-0.1c-1.4,0-2.6-1.1-2.7-2.5l-1-10.7
					C184.2,162.5,185,161.5,186.1,161.5z"/>
				<g class="st6">
					<path class="st7" d="M207.2,165.9c-1,0-1.6,0.7-1.5,1.6l0.3,1.8c0.1,0.9,1,1.7,2,1.7h27.7c1,0,1.7-0.8,1.7-1.7v-0.5
						c0-1-0.8-1.8-1.8-1.8L207.2,165.9z"/>
				</g>
				<g>
					<path class="st7" d="M140.1,204.1C140,204.1,140,204.1,140.1,204.1l-10.6-0.1c-1.5,0-2.7-1.1-2.9-2.4l-0.9-8.8
						c-0.1-0.5,0.1-1,0.5-1.4c0.4-0.5,1-0.8,1.6-0.8l0,0c0.9-0.1,2.1-0.2,3.5-0.3c2.8-0.2,6.3-0.5,8.2-0.6c1.4,0,2.6,0.8,2.9,2.1
						c0.5,2,0.5,5.9,0.4,10C142.7,203,141.5,204.1,140.1,204.1z M127.8,191.3c-0.4,0-0.8,0.2-1,0.5c-0.2,0.2-0.3,0.5-0.3,0.8
						l0.9,8.8c0.1,0.9,1,1.7,2.1,1.7l10.5,0.1l0,0c1,0,1.9-0.7,1.9-1.6c0.1-4,0.2-7.8-0.4-9.7c-0.2-0.9-1.1-1.5-2.2-1.5
						c-1.9,0-5.4,0.3-8.1,0.6C129.9,191.1,128.7,191.2,127.8,191.3L127.8,191.3z"/>
					<path class="st2" d="M128.9,192.2c2.2-0.2,7-0.6,9.3-0.7c1,0,1.8,0.6,2,1.4c0.4,1.6,0.4,4.9,0.3,7.9c0,0.9-0.8,1.6-1.9,1.6
						l-8.4-0.1c-1,0-1.9-0.7-2-1.6l-0.7-7.1C127.5,192.9,128.1,192.3,128.9,192.2z"/>
					<g class="st6">
						<path class="st7" d="M149.3,198.2c0.3,1.2,1.4,2,2.6,1.9l97.5-0.8c1.1,0,2-0.9,2-2s-0.9-1.9-2-1.9l-97.5-0.4
							C150.1,194.9,148.9,196.5,149.3,198.2z"/>
					</g>
					
						<linearGradient id="SVGID_00000025436915883836269360000017664320155388503203_" gradientUnits="userSpaceOnUse" x1="160.3001" y1="227.1741" x2="106.5151" y2="135.3757" gradientTransform="matrix(1 0 0 -1 0 377.0987)">
						<stop  offset="0" style="stop-color:#4F52FF"/>
						<stop  offset="1" style="stop-color:#4042E2"/>
					</linearGradient>
					<path style="fill:url(#SVGID_00000025436915883836269360000017664320155388503203_);" d="M129.4,193.6L129.4,193.6
						c0.8-0.5,1.8-0.2,2.2,0.6l2.1,3.7c0.2,0.4,0.8,0.3,0.9,0l5.2-11.5c0.3-0.6,1.1-0.4,1.1,0.2c-0.1,3.5-1,10.2-6.6,15.8
						c0,0-3.1-1.2-5.6-6.7C128.3,195,128.6,194,129.4,193.6z"/>
					<path class="st7" d="M140.1,226.6C140,226.6,140,226.6,140.1,226.6l-10.6-0.1c-1.5,0-2.7-1.1-2.9-2.4l-0.9-8.8
						c-0.1-0.5,0.1-1,0.5-1.4c0.4-0.5,1-0.8,1.6-0.8l0,0c0.9-0.1,2.1-0.2,3.5-0.3c2.8-0.2,6.3-0.5,8.2-0.6l0,0
						c1.4,0,2.6,0.8,2.9,2.1c0.5,2,0.5,5.9,0.4,10C142.7,225.6,141.5,226.6,140.1,226.6z M127.8,213.9c-0.4,0-0.8,0.2-1,0.5
						c-0.2,0.2-0.3,0.5-0.3,0.8l0.9,8.8c0.1,0.9,1,1.7,2.1,1.7l10.5,0.1l0,0c1,0,1.9-0.7,1.9-1.6c0.1-4,0.2-7.8-0.4-9.7
						c-0.2-0.9-1.1-1.5-2.2-1.5c-1.9,0-5.4,0.3-8.1,0.6C129.9,213.7,128.7,213.8,127.8,213.9L127.8,213.9z"/>
					<path class="st2" d="M128.9,214.8c2.2-0.2,7-0.6,9.3-0.7c1,0,1.8,0.6,2,1.4c0.4,1.6,0.4,4.9,0.3,7.9c0,0.9-0.8,1.6-1.9,1.6
						l-8.4-0.1c-1,0-1.9-0.7-2-1.6l-0.7-7.1C127.5,215.5,128.1,214.8,128.9,214.8z"/>
					<g class="st6">
						<path class="st7" d="M149.3,220.8c0.3,1.2,1.4,2,2.6,1.9l97.5-0.8c1.1,0,2-0.9,2-2s-0.9-1.9-2-1.9l-97.5-0.4
							C150.1,217.5,148.9,219.1,149.3,220.8z"/>
					</g>
					
						<linearGradient id="SVGID_00000173859337755088734400000001831598453115108248_" gradientUnits="userSpaceOnUse" x1="170.1522" y1="221.4018" x2="116.367" y2="129.6033" gradientTransform="matrix(1 0 0 -1 0 377.0987)">
						<stop  offset="0" style="stop-color:#4F52FF"/>
						<stop  offset="1" style="stop-color:#4042E2"/>
					</linearGradient>
					<path style="fill:url(#SVGID_00000173859337755088734400000001831598453115108248_);" d="M129.4,216.2L129.4,216.2
						c0.8-0.5,1.8-0.2,2.2,0.6l2.1,3.7c0.2,0.4,0.8,0.3,0.9,0l5.2-11.5c0.3-0.6,1.1-0.4,1.1,0.2c-0.1,3.5-1,10.2-6.6,15.8
						c0,0-3.1-1.2-5.6-6.7C128.3,217.5,128.6,216.6,129.4,216.2z"/>
					<path class="st7" d="M140.1,249.2C140,249.2,140,249.2,140.1,249.2l-10.6-0.1c-1.5,0-2.7-1-2.9-2.4l-0.9-8.8
						c-0.1-0.5,0.1-1,0.5-1.4c0.4-0.5,1-0.8,1.6-0.8l0,0c0.9-0.1,2.1-0.2,3.5-0.3c2.8-0.2,6.3-0.5,8.2-0.6l0,0
						c1.4,0,2.6,0.8,2.9,2.1c0.5,2,0.5,5.9,0.4,10C142.7,248.1,141.5,249.2,140.1,249.2z M127.8,236.4c-0.4,0-0.8,0.2-1,0.5
						c-0.2,0.2-0.3,0.5-0.3,0.8l0.9,8.8c0.1,0.9,1,1.7,2.1,1.7l10.5,0.1l0,0c1,0,1.9-0.7,1.9-1.6c0.1-4,0.2-7.8-0.4-9.7
						c-0.2-0.9-1.1-1.5-2.2-1.5c-1.9,0-5.4,0.3-8.1,0.6C129.9,236.3,128.7,236.4,127.8,236.4L127.8,236.4z"/>
					<path class="st2" d="M128.9,237.4c2.2-0.2,7-0.6,9.3-0.7c1,0,1.8,0.6,2,1.4c0.4,1.6,0.4,4.9,0.3,7.9c0,0.9-0.8,1.6-1.9,1.6
						l-8.4-0.1c-1,0-1.9-0.7-2-1.6l-0.7-7.1C127.5,238.1,128.1,237.4,128.9,237.4z"/>
					<g class="st6">
						<path class="st7" d="M149.3,243.3c0.3,1.2,1.4,2,2.6,1.9l97.5-0.8c1.1,0,2-0.9,2-2s-0.9-1.9-2-1.9l-97.5-0.4
							C150.1,240.1,148.9,241.7,149.3,243.3z"/>
					</g>
					
						<linearGradient id="SVGID_00000095322206059771739750000003532114344572337537_" gradientUnits="userSpaceOnUse" x1="178.4164" y1="198.7837" x2="107.6466" y2="100.1104" gradientTransform="matrix(1 0 0 -1 0 377.0987)">
						<stop  offset="0" style="stop-color:#4F52FF"/>
						<stop  offset="1" style="stop-color:#4042E2"/>
					</linearGradient>
					<path style="fill:url(#SVGID_00000095322206059771739750000003532114344572337537_);" d="M129.4,238.7L129.4,238.7
						c0.8-0.5,1.8-0.2,2.2,0.6l2.1,3.7c0.2,0.4,0.8,0.3,0.9,0l5.2-11.5c0.3-0.6,1.1-0.4,1.1,0.2c-0.1,3.5-1,10.2-6.6,15.8
						c0,0-3.1-1.2-5.6-6.7C128.3,240.1,128.6,239.2,129.4,238.7z"/>
					<path class="st7" d="M140.1,271.8C140,271.8,140,271.8,140.1,271.8l-10.6-0.1c-1.5,0-2.7-1-2.9-2.4l-0.9-8.8
						c-0.1-0.5,0.1-1,0.5-1.4c0.4-0.5,1-0.8,1.6-0.8l0,0c0.9-0.1,2.1-0.2,3.5-0.3c2.8-0.2,6.3-0.5,8.2-0.6l0,0
						c1.4,0,2.6,0.8,2.9,2.1c0.5,2,0.5,5.9,0.4,10C142.7,270.7,141.5,271.8,140.1,271.8z M127.8,259c-0.4,0-0.8,0.2-1,0.5
						c-0.2,0.2-0.3,0.5-0.3,0.8l0.9,8.8c0.1,0.9,1,1.7,2.1,1.7l10.5,0.1l0,0c1,0,1.9-0.7,1.9-1.6c0.1-4,0.2-7.8-0.4-9.7
						c-0.2-0.9-1.1-1.5-2.2-1.5c-1.9,0-5.4,0.3-8.1,0.6C129.9,258.8,128.7,259,127.8,259L127.8,259z"/>
					<path class="st2" d="M128.9,259.9c2.2-0.2,7-0.6,9.3-0.7c1,0,1.8,0.6,2,1.4c0.4,1.6,0.4,4.9,0.3,7.9c0,0.9-0.8,1.6-1.9,1.6
						l-8.4-0.1c-1,0-1.9-0.7-2-1.6l-0.7-7.1C127.5,260.6,128.1,260,128.9,259.9z"/>
					<g class="st6">
						<path class="st7" d="M149.3,265.9L149.3,265.9c0.3,1.2,1.4,2,2.6,1.9l97.5-0.8c1.1,0,2-0.9,2-2s-0.9-1.9-2-1.9l-97.5-0.4
							C150.1,262.6,148.9,264.3,149.3,265.9z"/>
					</g>
					
						<linearGradient id="SVGID_00000015342967710865106870000000370052854900173453_" gradientUnits="userSpaceOnUse" x1="189.8388" y1="209.8674" x2="136.0537" y2="118.069" gradientTransform="matrix(1 0 0 -1 0 377.0987)">
						<stop  offset="0" style="stop-color:#4F52FF"/>
						<stop  offset="1" style="stop-color:#4042E2"/>
					</linearGradient>
					<path style="fill:url(#SVGID_00000015342967710865106870000000370052854900173453_);" d="M129.4,261.3L129.4,261.3
						c0.8-0.5,1.8-0.2,2.2,0.6l2.1,3.7c0.2,0.4,0.8,0.3,0.9,0l5.2-11.5c0.3-0.6,1.1-0.4,1.1,0.2c-0.1,3.5-1,10.2-6.6,15.8
						c0,0-3.1-1.2-5.6-6.7C128.3,262.7,128.6,261.8,129.4,261.3z"/>
				</g>
			</g>
			
				<linearGradient id="SVGID_00000119095939473981151920000012284840505931124623_" gradientUnits="userSpaceOnUse" x1="207.2253" y1="370.6174" x2="139.2865" y2="281.2456" gradientTransform="matrix(1 0 0 -1 0 377.0987)">
				<stop  offset="0" style="stop-color:#2B3582"/>
				<stop  offset="1" style="stop-color:#150E42"/>
			</linearGradient>
			<path style="fill:url(#SVGID_00000119095939473981151920000012284840505931124623_);" d="M190.7,28.5c-5.3-3.7-10-3.6-13.2-2.7
				c-3,0.9-4.9,3.8-4.6,6.8l1.4,15.4l16.8,1.5C191,49.5,201.2,35.8,190.7,28.5z M183.4,40.9c-2.3,0-4.2-1.9-4.2-4.2
				c0-2.3,1.9-4.2,4.2-4.2s4.2,1.9,4.2,4.2C187.5,39,185.7,40.9,183.4,40.9z"/>
			<path class="st7" d="M176,41.6c-0.2,0-0.4-0.2-0.4-0.4l-0.2-2.4c0-0.2,0.1-0.4,0.4-0.4c0.2,0,0.4,0.1,0.4,0.4l0.2,2.4
				C176.4,41.4,176.2,41.6,176,41.6L176,41.6z M175.5,36.8c-0.2,0-0.4-0.2-0.4-0.4l-0.2-1.9c-0.3-2.9,1.6-5.7,4.4-6.5
				c2-0.6,4.1-0.7,6.1-0.3c0.2,0,0.4,0.3,0.3,0.5c0,0.2-0.3,0.4-0.5,0.3c-1.9-0.4-3.9-0.3-5.7,0.2c-2.5,0.7-4.1,3.1-3.8,5.7l0.2,1.9
				C175.9,36.6,175.8,36.8,175.5,36.8L175.5,36.8z"/>
			
				<linearGradient id="SVGID_00000134946662130185572840000005005505641437457307_" gradientUnits="userSpaceOnUse" x1="214.6623" y1="364.9641" x2="146.7235" y2="275.5921" gradientTransform="matrix(1 0 0 -1 0 377.0987)">
				<stop  offset="0" style="stop-color:#2B3582"/>
				<stop  offset="1" style="stop-color:#150E42"/>
			</linearGradient>
			<path style="fill:url(#SVGID_00000134946662130185572840000005005505641437457307_);" d="M151.4,58v-7.7c0-2.7,2.2-4.8,4.9-4.7
				l53.3,1.8c2.4,0.1,4.3,1.9,4.4,4.3l0.4,7.4L151.4,58z"/>
			<path class="st7" d="M171.3,48.5H169c-0.2,0-0.4-0.2-0.4-0.4c0-0.2,0.2-0.4,0.4-0.4h2.3c0.2,0,0.4,0.2,0.4,0.4
				C171.7,48.3,171.5,48.5,171.3,48.5z"/>
			<path class="st7" d="M154.3,55.6c-0.2,0-0.4-0.2-0.4-0.4v-3.1c0-2.4,2-4.4,4.4-4.4h8.4c0.2,0,0.4,0.2,0.4,0.4
				c0,0.2-0.2,0.4-0.4,0.4h-8.4c-2,0-3.6,1.6-3.6,3.6v3.1C154.7,55.4,154.5,55.6,154.3,55.6z"/>
			
				<linearGradient id="SVGID_00000168825975133497130410000011208872771291341233_" gradientUnits="userSpaceOnUse" x1="195.6925" y1="261.2944" x2="255.0639" y2="346.055" gradientTransform="matrix(1 0 0 -1 0 377.0987)">
				<stop  offset="0" style="stop-color:#FF928E"/>
				<stop  offset="1" style="stop-color:#FE7062"/>
			</linearGradient>
			<path style="fill:url(#SVGID_00000168825975133497130410000011208872771291341233_);" d="M228.5,108.5L216,98.2l-12.5,10.2
				c1-9.6,1.5-20.4,0.9-32c-0.2-3.7-0.4-7.3-0.8-10.8c0-0.4,0.1-0.9,0.4-1.2c0.3-0.3,0.7-0.5,1.2-0.5c7.3,0,14.6,0,21.8,0
				c0.8,0,1.5,0.7,1.6,1.5c0.3,5.3,0.5,10.8,0.5,16.5C229.2,91.3,229,100.1,228.5,108.5z"/>
			
				<linearGradient id="SVGID_00000155124369257423789720000017016492657206053810_" gradientUnits="userSpaceOnUse" x1="206.0937" y1="359.5002" x2="159.1832" y2="273.3633" gradientTransform="matrix(1 0 0 -1 0 377.0987)">
				<stop  offset="0" style="stop-color:#4F52FF"/>
				<stop  offset="1" style="stop-color:#4042E2"/>
			</linearGradient>
			<path style="fill:url(#SVGID_00000155124369257423789720000017016492657206053810_);" d="M129.7,59.9c0.1-2.7,2.3-4.8,5-4.8h93.2
				c3.4,0,6.2,2.4,6.8,5.7l0.1,0.5c0.6,3.6-2.2,6.9-5.8,6.9h-95.6c-2.2,0-3.9-1.8-3.8-4L129.7,59.9z"/>
		</g>
		<g>
			
				<linearGradient id="SVGID_00000159472042799135596460000018264831681742825874_" gradientUnits="userSpaceOnUse" x1="-9776.2939" y1="63.4252" x2="-9755.332" y2="63.4252" gradientTransform="matrix(-1 0 0 -1 -9476.0488 377.0987)">
				<stop  offset="0" style="stop-color:#090056"/>
				<stop  offset="1" style="stop-color:#020039"/>
			</linearGradient>
			<path style="fill:url(#SVGID_00000159472042799135596460000018264831681742825874_);" d="M292.4,317.9c-4.9,0.2-9.6,0.1-12.8-0.1
				c2.9-2,9.5-6.5,15-8.3l3.8-0.2c0,0,1.3,2,1.7,6.4C299.5,316.5,297.7,317.6,292.4,317.9z"/>
			
				<linearGradient id="SVGID_00000093883881784565921760000009807957263755031714_" gradientUnits="userSpaceOnUse" x1="263.4191" y1="90.1044" x2="307.0921" y2="39.9912" gradientTransform="matrix(1 0 0 -1 0 377.0987)">
				<stop  offset="0" style="stop-color:#090056"/>
				<stop  offset="1" style="stop-color:#020039"/>
			</linearGradient>
			<path style="fill:url(#SVGID_00000093883881784565921760000009807957263755031714_);" d="M279.6,317.8L279.6,317.8
				c3.2,0.1,7.9,0.3,12.8,0.1c5.3-0.2,7.2-1.3,7.8-2.1c0,0.2,0,0.4,0.1,0.6c0.1,1-0.7,1.8-1.6,1.9c-4,0.3-13.9,1-18.7,0.7
				C279.3,319,279.1,318.2,279.6,317.8z"/>
			
				<linearGradient id="SVGID_00000157285288400742834790000006267419913811066520_" gradientUnits="userSpaceOnUse" x1="-9813.1172" y1="63.3685" x2="-9803.3027" y2="63.3685" gradientTransform="matrix(-1 0 0 -1 -9476.0488 377.0987)">
				<stop  offset="0" style="stop-color:#090056"/>
				<stop  offset="1" style="stop-color:#020039"/>
			</linearGradient>
			<path style="fill:url(#SVGID_00000157285288400742834790000006267419913811066520_);" d="M327.3,316.6c0.4-2.3,0.9-5.6,1.4-6.5
				c0.7-1.3,3.1,0,3.1,0s1.7,0.8,2.4,2.1c0.5,0.8,1.8,3.2,2.8,4.8c0.1,0.2,0.1,0.4,0.1,0.6l-9.5,0.3
				C327.3,317.5,327.2,317.1,327.3,316.6z"/>
			
				<linearGradient id="SVGID_00000171716832209036839540000001245479562983816611_" gradientUnits="userSpaceOnUse" x1="287.3481" y1="110.9586" x2="331.021" y2="60.8454" gradientTransform="matrix(1 0 0 -1 0 377.0987)">
				<stop  offset="0" style="stop-color:#090056"/>
				<stop  offset="1" style="stop-color:#020039"/>
			</linearGradient>
			<path style="fill:url(#SVGID_00000171716832209036839540000001245479562983816611_);" d="M337.1,317.5c0,0.5-0.4,1-1.1,1.1
				l-6.8,0.2c-0.7,0-1.3-0.4-1.7-0.9L337.1,317.5z"/>
			
				<linearGradient id="SVGID_00000085251641526662779580000018124720802442913208_" gradientUnits="userSpaceOnUse" x1="-9808.9668" y1="70.1003" x2="-9802.5977" y2="70.1003" gradientTransform="matrix(-1 0 0 -1 -9476.0488 377.0987)">
				<stop  offset="0" style="stop-color:#FEBBBA"/>
				<stop  offset="1" style="stop-color:#FF928E"/>
			</linearGradient>
			<path style="fill:url(#SVGID_00000085251641526662779580000018124720802442913208_);" d="M326.5,302.5c0.1,0.3,1.3,6.2,1.9,8.9
				c0.1,0.7,0.8,1.2,1.5,1.2c0.4,0,0.9-0.1,1.4-0.1c0.9-0.1,1.5-0.8,1.6-1.7c0.1-2.3,0.1-6.7-0.7-8.4
				C331,300,326.5,302.5,326.5,302.5z"/>
			
				<linearGradient id="SVGID_00000183957778296425562660000015976095587863910311_" gradientUnits="userSpaceOnUse" x1="-9775.2275" y1="70.5797" x2="-9769.9199" y2="70.5797" gradientTransform="matrix(-1 0 0 -1 -9476.0488 377.0987)">
				<stop  offset="0" style="stop-color:#FEBBBA"/>
				<stop  offset="1" style="stop-color:#FF928E"/>
			</linearGradient>
			<path style="fill:url(#SVGID_00000183957778296425562660000015976095587863910311_);" d="M299.2,304.2c-0.5,0,0.2,2.7-0.6,5.4
				c-0.2,0.6-0.6,1.1-1.3,1.1c-0.4,0-0.9,0-1.4,0c-0.7-0.1-1.3-0.6-1.4-1.4l-0.6-7L299.2,304.2z"/>
			
				<linearGradient id="SVGID_00000060001041005013529410000002992260404711901110_" gradientUnits="userSpaceOnUse" x1="434.9574" y1="43.6362" x2="314.5041" y2="104.3156" gradientTransform="matrix(1 0 0 -1 0 377.0987)">
				<stop  offset="0" style="stop-color:#090056"/>
				<stop  offset="1" style="stop-color:#020039"/>
			</linearGradient>
			<path style="fill:url(#SVGID_00000060001041005013529410000002992260404711901110_);" d="M284.4,229.9c0.2,1.1,8.6,49.6,9.1,74.7
				c0,0.4,0.3,0.8,0.7,0.8c1.1,0.1,3.1,0.3,5.1,0c0.3-0.1,0.5-0.3,0.5-0.6c0.3-4.7,2.6-44.2-0.2-62.8c0,0,23.6,49.8,27.2,63.5
				c0.1,0.3,0.4,0.6,0.7,0.5c1-0.1,3.1-0.2,4.8-0.9c0.6-0.2,0.9-0.9,0.8-1.5c-2-8.2-16-64.8-25.6-77.3L284.4,229.9z"/>
			
				<linearGradient id="SVGID_00000107569790108201540910000013735791101358828419_" gradientUnits="userSpaceOnUse" x1="-9762.0088" y1="152.1451" x2="-9783.7334" y2="124.0579" gradientTransform="matrix(-1 0 0 -1 -9476.0488 377.0987)">
				<stop  offset="0" style="stop-color:#CB236D"/>
				<stop  offset="1" style="stop-color:#4C246D"/>
			</linearGradient>
			<path style="fill:url(#SVGID_00000107569790108201540910000013735791101358828419_);" d="M299.6,242.4c0.1,0,0.2,0,0.2-0.1
				c0.1-0.1,0.1-0.3,0-0.4l-3.2-3.2c-0.1-0.1-0.3-0.1-0.4,0s-0.1,0.3,0,0.4l3.2,3.2C299.4,242.3,299.5,242.4,299.6,242.4z"/>
			
				<linearGradient id="SVGID_00000063593297166263674210000012405420142762219654_" gradientUnits="userSpaceOnUse" x1="265.259" y1="242.3212" x2="342.263" y2="97.7207" gradientTransform="matrix(1 0 0 -1 0 377.0987)">
				<stop  offset="0" style="stop-color:#4F52FF"/>
				<stop  offset="1" style="stop-color:#4042E2"/>
			</linearGradient>
			<path style="fill:url(#SVGID_00000063593297166263674210000012405420142762219654_);" d="M276.4,167.3c7.1-1.1,21-2.6,30,0.1
				l-1,28l-32.8-3.5l-2.8-4C269.9,187.9,271.1,168.1,276.4,167.3z"/>
			
				<linearGradient id="SVGID_00000179617893693006587460000000745968832174767510_" gradientUnits="userSpaceOnUse" x1="-9617.2812" y1="671.9281" x2="-9614.7988" y2="687.2382" gradientTransform="matrix(-0.9943 -0.107 0.107 -0.9943 -9346.2373 -188.043)">
				<stop  offset="0" style="stop-color:#FEBBBA"/>
				<stop  offset="1" style="stop-color:#FF928E"/>
			</linearGradient>
			<path style="fill:url(#SVGID_00000179617893693006587460000000745968832174767510_);" d="M292.8,152.3c0,0,0.7,11.1,0.5,14.6
				c0,0-9.1,1.5-11.3-0.1l1.7-13.2L292.8,152.3z"/>
			<g>
				
					<linearGradient id="SVGID_00000018209386190088363190000007636026956945671828_" gradientUnits="userSpaceOnUse" x1="-9609.0596" y1="696.9998" x2="-9625.9736" y2="684.0577" gradientTransform="matrix(-0.9943 -0.107 0.107 -0.9943 -9346.2373 -188.043)">
					<stop  offset="0" style="stop-color:#FEBBBA"/>
					<stop  offset="1" style="stop-color:#FF928E"/>
				</linearGradient>
				<path style="fill:url(#SVGID_00000018209386190088363190000007636026956945671828_);" d="M283.9,141.2c0,0-3.7,6.4-4.2,10
					c-0.6,3.5-1.6,5.7,2.4,6.9s7.7-0.5,10-3.8c0,0,3.5-5.1,3.1-7.4C294.7,144.5,283.9,141.2,283.9,141.2z"/>
				
					<linearGradient id="SVGID_00000001665243034006967310000015304315938458735781_" gradientUnits="userSpaceOnUse" x1="278.3886" y1="235.0379" x2="320.6528" y2="223.5662" gradientTransform="matrix(1 0 0 -1 0 377.0987)">
					<stop  offset="0" style="stop-color:#090056"/>
					<stop  offset="1" style="stop-color:#020039"/>
				</linearGradient>
				<path style="fill:url(#SVGID_00000001665243034006967310000015304315938458735781_);" d="M290.9,151.5l-0.5-0.1
					c0,0,2.6-4.2,0.8-5.1c-1.8-1-9.1-3.3-10.4-6.1c-1.3-2.7,0.5-5.8,2.6-6.5c0.1,0,0.3,0,0.3,0.2l0.1,0.3c0.1,0.2,0.4,0.2,0.5,0l0,0
					c0.1-0.2,0.4-0.2,0.5,0c0.4,0.8,1.6,2.3,5.1,3.3c5,1.5,8.1,3.9,7.8,7.4c0,0.2,0.2,0.4,0.4,0.3c0.4-0.2,1-0.2,1.7,0.5
					c1.3,1.3,0.4,4.3-2.9,6.5c-0.2,0.1-0.2,0.3,0,0.4c0.5,0.4,1.2,1.4-1,2.3c-2.3,0.9-3.6,0.7-4.1,0.5c-0.1,0-0.2-0.2-0.2-0.3
					l0.5-3.1c0-0.2-0.1-0.3-0.2-0.3L290.9,151.5z"/>
				
					<linearGradient id="SVGID_00000047755443486451245890000003007175577921151376_" gradientUnits="userSpaceOnUse" x1="-9611.2041" y1="699.8031" x2="-9628.1191" y2="686.861" gradientTransform="matrix(-0.9943 -0.107 0.107 -0.9943 -9346.2373 -188.043)">
					<stop  offset="0" style="stop-color:#FEBBBA"/>
					<stop  offset="1" style="stop-color:#FF928E"/>
				</linearGradient>
				<path style="fill:url(#SVGID_00000047755443486451245890000003007175577921151376_);" d="M290.7,152.1c0,0,1.6-4.2,3.4-2.8
					s-1.5,4.7-3.1,4.7L290.7,152.1z"/>
			</g>
			<g>
				
					<linearGradient id="SVGID_00000062191456613472020700000011661610426839785658_" gradientUnits="userSpaceOnUse" x1="-2084.7944" y1="-5128.0381" x2="-2194.0034" y2="-5271.4102" gradientTransform="matrix(0.1855 -0.9827 -0.9827 -0.1855 -4398.5264 -2850.9282)">
					<stop  offset="0" style="stop-color:#FF928E"/>
					<stop  offset="1" style="stop-color:#FE7062"/>
				</linearGradient>
				<path style="fill:url(#SVGID_00000062191456613472020700000011661610426839785658_);" d="M251.4,189.2l0.9-3.4
					c0.4-1.7,2.1-2.7,3.8-2.4l81.9,16.7c1.9,0.4,3.1,2.2,2.7,4.1l-5,23.7L251.4,189.2z"/>
				<path class="st7" d="M243.6,230.7l6.2-44.3c0.1-0.9,1-1.5,1.9-1.3l84.2,18.7c1.8,0.4,2.9,2.2,2.5,4l-7.1,30.6L243.6,230.7z"/>
				<path class="st7" d="M245.9,228.7l2.4-39.5c0.1-1,1-1.7,2-1.5l85,18c1.2,0.3,2,1.4,1.8,2.6l-4.5,28.6L245.9,228.7z"/>
				
					<linearGradient id="SVGID_00000064328282544063395320000008383260201461346207_" gradientUnits="userSpaceOnUse" x1="247.0197" y1="208.6134" x2="320.0765" y2="110.802" gradientTransform="matrix(1 0 0 -1 0 377.0987)">
					<stop  offset="0" style="stop-color:#FF928E"/>
					<stop  offset="1" style="stop-color:#FE7062"/>
				</linearGradient>
				<path style="fill:url(#SVGID_00000064328282544063395320000008383260201461346207_);" d="M239.7,238.1l5.4-42.8
					c0.3-2.1,2.3-3.6,4.4-3.2l87.2,16.5c1.8,0.3,2.9,2,2.6,3.8l-7.4,39c-0.3,1.8-2.1,3.1-3.9,2.8l-84.5-11.3
					C241.1,242.6,239.4,240.4,239.7,238.1z"/>
				
					<linearGradient id="SVGID_00000091696431849095780270000014525223018578846620_" gradientUnits="userSpaceOnUse" x1="247.0046" y1="208.6021" x2="320.0615" y2="110.7907" gradientTransform="matrix(1 0 0 -1 0 377.0987)">
					<stop  offset="0" style="stop-color:#FF928E"/>
					<stop  offset="1" style="stop-color:#FE7062"/>
				</linearGradient>
				<path style="fill:url(#SVGID_00000091696431849095780270000014525223018578846620_);" d="M280.1,197.9L280.1,197.9
					c-0.3,1.8-2.1,3-3.9,2.7l-19.4-3.7c-1.8-0.3-3-2.1-2.7-3.9l0,0c0.3-1.8,2.1-3,3.9-2.7l19.4,3.7
					C279.3,194.3,280.5,196,280.1,197.9z"/>
			</g>
			
				<linearGradient id="SVGID_00000022553667221201598110000001834905635078431934_" gradientUnits="userSpaceOnUse" x1="278.6976" y1="249.4778" x2="355.7017" y2="104.877" gradientTransform="matrix(1 0 0 -1 0 377.0987)">
				<stop  offset="0" style="stop-color:#4F52FF"/>
				<stop  offset="1" style="stop-color:#4042E2"/>
			</linearGradient>
			<path style="fill:url(#SVGID_00000022553667221201598110000001834905635078431934_);" d="M297.3,179.6l9.2-12.2
				c0,0,14.7,15.6,17.5,35.4l-9.2,4.5C311.9,200.6,306.7,191.6,297.3,179.6z"/>
			
				<linearGradient id="SVGID_00000172399613805679762200000000220139251683447940_" gradientUnits="userSpaceOnUse" x1="309.2477" y1="146.4927" x2="334.7573" y2="183.1721" gradientTransform="matrix(1 0 0 -1 0 377.0987)">
				<stop  offset="0" style="stop-color:#FEBBBA"/>
				<stop  offset="1" style="stop-color:#FF928E"/>
			</linearGradient>
			<path style="fill:url(#SVGID_00000172399613805679762200000000220139251683447940_);" d="M310.4,234.6c1.1-1.8,3.2-5.3,4.2-6.3
				c0,0-0.9-0.6-2.7-0.4c-1.8,0.2-3.2-0.7-3.2-1.6l8.6-2.6c0.4-0.8,2.1-5.4-2.5-16.3l9.2-4.5c1.1,7.4,0.5,15.4-3.2,23.4
				c0,0-2.8,8.8-6.1,10.8C306.1,242.2,310,235.3,310.4,234.6z"/>
		</g>
		<g>
			<path class="st7" d="M91.3,119.8l-1.8,2.3l0,0c-0.1,0.2-0.4,0.2-0.5,0.1c-0.2-0.1-0.2-0.4-0.1-0.5l0,0l1.9-2.3
				c0.1-0.1,0.3-0.2,0.5,0C91.4,119.4,91.5,119.6,91.3,119.8L91.3,119.8z"/>
			<path class="st7" d="M85.2,128.1l-3.1,4.9l0,0c-0.2,0.2-0.5,0.3-0.7,0.2c-0.2-0.2-0.3-0.5-0.2-0.7l0,0l3.2-4.9
				c0.1-0.2,0.4-0.3,0.7-0.1C85.3,127.6,85.4,127.9,85.2,128.1L85.2,128.1z"/>
			<path class="st7" d="M78.6,139.5l-2.5,5.2l0,0c-0.2,0.3-0.5,0.5-0.9,0.3c-0.3-0.2-0.5-0.5-0.3-0.9l0,0l2.6-5.2
				c0.1-0.3,0.5-0.4,0.8-0.3C78.6,138.8,78.8,139.2,78.6,139.5L78.6,139.5z"/>
			<path class="st7" d="M73.4,151.6l-1.8,5.5l0,0c-0.1,0.4-0.6,0.6-1,0.5s-0.6-0.6-0.5-1l0,0l1.9-5.5c0.1-0.4,0.5-0.6,0.9-0.4
				C73.4,150.8,73.6,151.2,73.4,151.6L73.4,151.6z"/>
			<path class="st7" d="M69.8,164.2l-1.1,5.6l0,0c-0.1,0.5-0.5,0.8-1,0.7s-0.8-0.5-0.7-1l0,0l1.1-5.7c0.1-0.4,0.5-0.7,1-0.6
				C69.6,163.3,69.9,163.7,69.8,164.2L69.8,164.2z"/>
			<path class="st7" d="M67.9,177.2l-0.3,5.7v0.1c0,0.5-0.5,0.9-1,0.9s-0.9-0.5-0.9-1l0,0l0.3-5.8c0-0.5,0.5-0.9,0.9-0.8
				C67.5,176.2,67.9,176.6,67.9,177.2L67.9,177.2z"/>
			<path class="st7" d="M67.7,190.3l0.5,5.7v0.1c0,0.5-0.4,1-0.9,1.1c-0.5,0-1-0.4-1.1-0.9l0,0l-0.5-5.8c0-0.5,0.4-1,0.9-1
				C67.2,189.3,67.7,189.7,67.7,190.3L67.7,190.3z"/>
			<path class="st7" d="M69.4,203.3l1.3,5.6v0.1c0.1,0.6-0.2,1.1-0.8,1.3c-0.6,0.1-1.1-0.2-1.3-0.8l0,0l-1.3-5.7
				c-0.1-0.6,0.2-1.1,0.8-1.2C68.7,202.3,69.3,202.7,69.4,203.3L69.4,203.3z"/>
			<path class="st7" d="M72.8,215.9l2,5.4v0.1c0.2,0.6-0.1,1.2-0.7,1.4c-0.6,0.2-1.2-0.1-1.4-0.7l0,0l-2-5.5
				c-0.2-0.6,0.1-1.2,0.7-1.4C71.9,215,72.6,215.3,72.8,215.9L72.8,215.9z"/>
			<path class="st7" d="M77.8,228l2.7,5.1v0.1c0.3,0.6,0.1,1.3-0.5,1.5c-0.6,0.3-1.3,0.1-1.5-0.5l0,0l-2.7-5.2
				c-0.3-0.6-0.1-1.2,0.5-1.5C76.8,227.2,77.5,227.4,77.8,228L77.8,228z"/>
			<path class="st7" d="M84.4,239.4l3.3,4.7v0.1c0.4,0.5,0.2,1.3-0.3,1.6c-0.5,0.4-1.3,0.2-1.6-0.3l0,0l-3.3-4.8
				c-0.4-0.5-0.2-1.2,0.3-1.6C83.2,238.7,84,238.8,84.4,239.4L84.4,239.4z"/>
			<path class="st7" d="M92.2,249.8l3.9,4.2l0,0c0.4,0.5,0.4,1.2-0.1,1.7c-0.5,0.4-1.2,0.4-1.7-0.1l0,0l-3.9-4.4
				c-0.4-0.5-0.4-1.2,0.1-1.7C91,249.3,91.8,249.3,92.2,249.8L92.2,249.8z"/>
			<path class="st7" d="M101.4,259.2l4.4,3.7h0.1c0.5,0.4,0.6,1.2,0.1,1.7c-0.4,0.5-1.2,0.6-1.7,0.1l0,0l-4.5-3.8
				c-0.5-0.4-0.6-1.2-0.1-1.7C100.1,258.8,100.8,258.7,101.4,259.2L101.4,259.2z"/>
			<path class="st7" d="M111.7,267.2l2.4,1.5l1.2,0.8c0.4,0.2,0.8,0.5,1.2,0.7c0.6,0.3,0.8,1.1,0.5,1.7s-1.1,0.8-1.7,0.5l0,0l0,0
				c-0.4-0.2-0.8-0.5-1.3-0.8l-1.2-0.8l-2.5-1.6c-0.6-0.4-0.7-1.1-0.4-1.7C110.3,267,111.1,266.8,111.7,267.2L111.7,267.2z"/>
			<path class="st7" d="M123.1,273.6c1.7,0.8,3.5,1.5,5.3,2.2c0.6,0.2,1,1,0.7,1.6c-0.2,0.6-1,1-1.6,0.7c-1.8-0.7-3.6-1.4-5.4-2.2
				c-0.6-0.3-0.9-1-0.6-1.7C121.7,273.6,122.4,273.3,123.1,273.6L123.1,273.6z"/>
			<path class="st7" d="M135.3,278l5.5,1.4h0.1c0.7,0.2,1.1,0.8,0.9,1.5c-0.2,0.7-0.8,1.1-1.5,0.9l-5.7-1.4
				c-0.7-0.2-1.1-0.8-0.9-1.5C133.9,278.3,134.6,277.9,135.3,278L135.3,278L135.3,278z"/>
			<path class="st7" d="M148.1,280.7l5.7,0.6h0.1c0.7,0.1,1.1,0.7,1.1,1.3c-0.1,0.7-0.7,1.1-1.3,1.1l-5.8-0.6
				c-0.7-0.1-1.2-0.7-1.1-1.3C146.8,281.1,147.4,280.6,148.1,280.7L148.1,280.7L148.1,280.7z"/>
			<path class="st7" d="M161.2,281.6l5.7-0.1h0.1c0.6,0,1.2,0.5,1.2,1.1s-0.5,1.2-1.1,1.2l-5.9,0.1c-0.7,0-1.2-0.5-1.2-1.2
				C159.9,282.2,160.4,281.6,161.2,281.6L161.2,281.6L161.2,281.6z"/>
			<path class="st7" d="M174.2,281l5.7-0.7h0.1c0.6-0.1,1.2,0.4,1.2,1c0.1,0.6-0.3,1.2-1,1.2l-5.8,0.8c-0.6,0.1-1.2-0.3-1.3-1
				C173.1,281.7,173.6,281.1,174.2,281L174.2,281L174.2,281z"/>
			<path class="st7" d="M187.2,278.9l5.6-1.3l0,0c0.5-0.1,1.1,0.2,1.2,0.8c0.1,0.5-0.2,1.1-0.7,1.2l-5.7,1.4
				c-0.6,0.1-1.1-0.2-1.3-0.8C186.2,279.7,186.6,279.1,187.2,278.9C187.2,279,187.2,279,187.2,278.9L187.2,278.9z"/>
			<path class="st7" d="M199.9,275.6l5.5-1.8l0,0c0.5-0.2,1,0.1,1.2,0.6s-0.1,1-0.6,1.2l-5.5,1.9c-0.5,0.2-1-0.1-1.2-0.6
				C199.1,276.3,199.4,275.8,199.9,275.6L199.9,275.6L199.9,275.6z"/>
			<path class="st7" d="M212.3,271.1l5.3-2.3l0,0c0.4-0.2,0.9,0,1.1,0.4c0.2,0.4,0,0.9-0.4,1.1l-5.3,2.4c-0.4,0.2-0.9,0-1.1-0.4
				C211.6,271.8,211.8,271.3,212.3,271.1C212.2,271.1,212.2,271.1,212.3,271.1L212.3,271.1z"/>
			<path class="st7" d="M224.2,265.5l5.1-2.7l0,0c0.3-0.2,0.7-0.1,0.9,0.3c0.2,0.3,0.1,0.7-0.3,0.9l-5.1,2.9c-0.4,0.2-0.8,0.1-1-0.3
				C223.7,266.2,223.8,265.7,224.2,265.5L224.2,265.5L224.2,265.5z"/>
			<path class="st7" d="M235.7,259l4.8-3.2l0,0c0.2-0.2,0.6-0.1,0.7,0.1c0.2,0.2,0.1,0.5-0.1,0.7l-4.8,3.3c-0.3,0.2-0.6,0.1-0.8-0.2
				C235.3,259.5,235.4,259.2,235.7,259C235.6,259,235.6,259,235.7,259L235.7,259z"/>
			<path class="st7" d="M246.6,251.5l2.3-1.8l0,0c0.2-0.1,0.4-0.1,0.5,0.1s0.1,0.4-0.1,0.5l-2.3,1.8c-0.2,0.1-0.4,0.1-0.6-0.1
				S246.4,251.7,246.6,251.5L246.6,251.5L246.6,251.5z"/>
		</g>
	</g>
	<g>
		<path class="st45" d="M46.8,348.4c0,0,2.6,0.7,3.8,0.7c1.1,0,3.1-0.2,3.1-1.8c0-1.1-1.4-1.7-2.8-2.3c-2.1-0.9-4.5-2-4.5-4.9
			c0-3.9,2.8-5,5.9-5c1.9,0,3.1,0.3,3.5,0.4c0.1,0,0.5,0,0.5,0c-0.1,0.6-0.3,2.3-0.4,2.9c0,0-1.9-0.4-3.4-0.4
			c-1.7,0-2.5,0.5-2.5,1.5c0,1.1,1.3,1.6,2.8,2.2c2.1,0.9,4.6,1.9,4.6,5c0,3.8-2.8,5.4-6.4,5.4c-2.2,0-3.8-0.6-4.1-0.7L46.8,348.4z"
			/>
		<path class="st45" d="M74,335c4.9,0,7.6,3.6,7.6,8.6s-2.6,8.6-7.6,8.6s-7.5-3.6-7.5-8.6S69,335,74,335z M74,349.3
			c2.6,0,3.5-2.8,3.5-5.7c0-2.8-0.8-5.6-3.5-5.6s-3.5,2.8-3.5,5.6C70.5,346.5,71.3,349.3,74,349.3z"/>
		<path class="st45" d="M104.8,346.1c0,4.4-2.7,6.2-6.6,6.2s-6.6-1.9-6.6-6.2v-10.8h3.7v10.8c0,2.2,1.1,3.1,2.9,3.1
			c1.9,0,3-0.9,3-3.1v-10.8h3.7L104.8,346.1L104.8,346.1z"/>
		<path class="st45" d="M114.5,335.3h12.3v3h-4.4V352h-3.9v-13.7h-4V335.3L114.5,335.3z"/>
		<path class="st45" d="M142.5,351.9h-6.7v-2.3l1.5-0.1v-11.6c-0.1,0-0.2,0-0.3-0.1l-1.2-0.1v-2.4h6.7v2.4l-1.5,0.1v11.6
			c0.1,0,0.2,0.1,0.4,0.1s0.6,0.1,1.1,0.1V351.9z"/>
		<path class="st45" d="M163,338.2h-6.5v3.6h5.9v3h-5.9v4.2h6.6v3h-10.3v-16.6H163V338.2z"/>
		<path class="st45" d="M177.8,335.3l5.4,11.6l-0.4-11.6h3.7v16.6h-4.8l-5.4-11.7l0.5,11.7h-3.7v-16.6H177.8L177.8,335.3z"/>
		<path class="st45" d="M214.4,349.3c0.3,0,0.8-0.1,1.1-0.2c0.1,0,0.5,0,0.5,0l0.2,1.3c0.1,0.2,0.1,0.4,0.2,1.2
			c-1.1,0.4-2.1,0.6-2.9,0.6c-1.9,0-3.2-1-3.2-3.4v-6.4h-1.9v-1.8l1.9-0.7c0.2-0.8,0.5-1.7,0.6-2.5l2.9-0.4v2.8h2.5v2.5h-2.5v6.4
			C213.7,349.2,214,349.3,214.4,349.3z"/>
		<path class="st45" d="M226.6,357.2l2.1-6.2h-0.1l-4.6-11.2h3.6l2.6,7.1l2.4-7.1h3.6l-6.2,17.5L226.6,357.2L226.6,357.2z"/>
		<path class="st45" d="M244.4,339.8c0.5-0.1,0.9-0.1,1.2-0.1l1.2-0.1l0.8,0.8c0.5-0.3,1.7-0.8,3-0.8c1.7,0,5.1,1.2,5.1,5.9
			c0,4.5-2.4,6.5-5.9,6.5H248v5.3h-3.6V339.8L244.4,339.8z M250.1,342.4c-0.8,0-2.2,0.2-2.2,0.2v6.6h1.6c1.7,0,2.4-1.5,2.4-3.5
			C252,343.9,251.2,342.4,250.1,342.4z"/>
		<path class="st45" d="M274.9,345.2c0,0.3,0,0.6-0.1,0.9l-0.1,0.1c0,0.1-0.2,0.5-0.2,0.6l-6.8-0.1c0.1,1.9,1.2,2.8,2.7,2.8
			c1.3,0,3.1-0.5,3.6-0.6l0.3,2.2c0,0-1.9,1.1-4.8,1.2c-3,0.1-5.3-2.3-5.3-6.4s2.2-6.3,5.5-6.3C272.9,339.6,274.9,341.4,274.9,345.2
			z M267.8,344.4h3.5c-0.1-1.5-0.8-2.2-1.6-2.2S267.9,342.2,267.8,344.4z"/>
		<path class="st45" d="M289.8,347h-6.2v-2.9l6.2-0.1V347z"/>
		<path class="st45" d="M311.2,351.9l-1.7-4.5H304c-0.5,1.5-1.2,3.1-1.7,4.5h-3.9l6.2-16.6h4.2l6.2,16.6H311.2L311.2,351.9z
			 M305,344.5h3.6l-1.8-5.6L305,344.5z M306.7,338.6l0.4,0.3h-0.3L306.7,338.6z"/>
	</g>
	<g>
		<path class="st46" d="M53.8,365.5c0,2.1-1.3,3-3.2,3s-3.2-0.9-3.2-3v-5.3h1.8v5.3c0,1.1,0.5,1.5,1.4,1.5s1.5-0.4,1.5-1.5v-5.3h1.8
			L53.8,365.5L53.8,365.5z"/>
		<path class="st46" d="M64.1,362.3l0.3,0.4c0.3-0.1,0.8-0.4,1.5-0.4c1.1,0,2.2,0.8,2.2,2.2v3.8h-1.8v-3.8c0-0.7-0.3-0.9-0.8-0.9
			c-0.4,0-0.9,0.1-0.9,0.1v4.6h-1.7v-5.9L64.1,362.3z"/>
		<path class="st46" d="M77.5,368.4V364l-0.7-0.1v-1.1l2.4-0.2v5.8L77.5,368.4L77.5,368.4z M78.2,360.1c0.5,0,0.9,0.4,0.9,0.9
			s-0.4,0.9-0.9,0.9s-0.9-0.4-0.9-0.9S77.7,360.1,78.2,360.1z"/>
		<path class="st46" d="M89.2,362.4l1.2,3.9l0,0c0.4-1.2,0.8-2.7,1.2-3.9h1.8l-2.1,5.9h-1.8l-1-2.9c-0.3-0.9-0.8-2.2-1.1-3H89.2z"/>
		<path class="st46" d="M106.6,365.1c0,0.1,0,0.3,0,0.4v0.1c0,0.1-0.1,0.2-0.1,0.3l-3.3-0.1c0.1,0.9,0.6,1.4,1.3,1.4
			c0.6,0,1.5-0.2,1.8-0.3l0.1,1c0,0-0.9,0.5-2.3,0.6c-1.5,0-2.6-1.1-2.6-3.1s1.1-3.1,2.7-3.1C105.7,362.3,106.6,363.2,106.6,365.1z
			 M103.2,364.7h1.7c-0.1-0.7-0.4-1.1-0.8-1.1S103.3,363.6,103.2,364.7z"/>
		<path class="st46" d="M118.6,363.8c-0.6,0-1.4,0.2-1.4,0.2v4.4h-1.7v-5.9c0.3,0,0.5,0,0.6-0.1l0.6-0.1l0.3,0.5
			c0.3-0.2,1-0.6,1.9-0.7L118.6,363.8z"/>
		<path class="st46" d="M127.2,366.8c0,0,1.1,0.3,1.6,0.4c0.5,0,0.8,0,0.8-0.4c0-0.3-0.5-0.5-0.9-0.6c-0.9-0.3-1.8-0.7-1.8-1.9
			c0-1.3,1.2-1.8,2.4-1.8c0.6,0,1.5,0.3,1.5,0.3l-0.2,1.2c0,0-0.9-0.2-1.4-0.2s-0.7,0.2-0.7,0.5c0,0.2,0.5,0.4,0.9,0.5
			c0.9,0.3,1.9,0.7,1.9,1.9c0,1.4-1.3,2-2.4,2c-1,0-1.7-0.3-1.8-0.4L127.2,366.8z"/>
		<path class="st46" d="M140.1,368.4V364l-0.7-0.1v-1.1l2.4-0.2v5.8L140.1,368.4L140.1,368.4z M140.9,360.1c0.5,0,0.9,0.4,0.9,0.9
			s-0.4,0.9-0.9,0.9s-0.9-0.4-0.9-0.9S140.3,360.1,140.9,360.1z"/>
		<path class="st46" d="M153.2,367.1c0.2,0,0.4-0.1,0.5-0.1c0,0,0.2,0,0.3,0l0.1,0.6c0,0.1,0.1,0.2,0.1,0.6c-0.5,0.2-1,0.3-1.4,0.3
			c-0.9,0-1.6-0.5-1.6-1.6v-3.1h-0.9v-0.9l0.9-0.3c0.1-0.4,0.2-0.8,0.3-1.2l1.4-0.2v1.4h1.2v1.2h-1.2v3.1
			C152.9,367,153,367.1,153.2,367.1z"/>
		<path class="st46" d="M167.8,365.1c0,0.1,0,0.3,0,0.4v0.1c0,0.1-0.1,0.2-0.1,0.3l-3.3-0.1c0.1,0.9,0.6,1.4,1.3,1.4
			c0.6,0,1.5-0.2,1.8-0.3l0.1,1c0,0-0.9,0.5-2.3,0.6c-1.5,0-2.6-1.1-2.6-3.1s1.1-3.1,2.7-3.1C166.8,362.3,167.8,363.2,167.8,365.1z
			 M164.3,364.7h1.7c-0.1-0.7-0.4-1.1-0.8-1.1S164.4,363.6,164.3,364.7z M164.7,362.2l0.8-2h1.7l-1.1,2H164.7z"/>
		<path class="st46" d="M192.8,361.7h-1.9c-1.3,0-1.7,0.8-1.7,2.6c0,1.8,0.6,2.6,1.9,2.6c0.6,0,1.6-0.3,1.8-0.3l0.2,1.1
			c0,0-1.1,0.8-2.7,0.8c-1.6,0-3.2-0.8-3.2-4.1c0-2.7,1.5-4.2,3.5-4.2c1.1,0,2.3,0.3,2.3,0.3L192.8,361.7z"/>
		<path class="st46" d="M207.2,368.1c0,0-0.9,0.4-1.5,0.4c-0.4,0-0.8-0.5-0.8-0.5c-0.3,0.2-0.9,0.5-1.6,0.5c-0.9,0-1.8-0.7-1.8-1.8
			c0-1.1,1-1.8,1.9-1.8c0.6,0,1.3,0.1,1.3,0.1v-0.6c0-0.4-0.3-0.7-0.7-0.7c-0.3,0-1.5,0.3-1.5,0.3l-0.4-1c0,0,1.5-0.6,2.2-0.6
			c0.9,0,2.2,0.6,2.2,1.9v2.9h0.5L207.2,368.1z M204.7,367.1V366h-0.9c-0.3,0-0.6,0.2-0.6,0.6c0,0.3,0.3,0.6,0.6,0.6
			C204.2,367.2,204.7,367.1,204.7,367.1z"/>
		<path class="st46" d="M217.7,362.3c0.5,0,1.3,0.2,1.3,0.2v-3h1.7v8.7l-1.2,0.2l-0.3-0.4c-0.3,0.2-0.9,0.4-1.8,0.4
			c-1.2,0-2.1-1-2.1-3.1C215.4,363.3,216.8,362.3,217.7,362.3z M218,367.2c0.4,0,1-0.1,1-0.1v-3.2c-0.2,0-0.6-0.1-1-0.1
			c-0.5,0-0.9,0.7-0.9,1.7C217.1,366.4,217.4,367.2,218,367.2z"/>
		<path class="st46" d="M230.2,368.4V364l-0.7-0.1v-1.1l2.4-0.2v5.8L230.2,368.4L230.2,368.4z M230.9,360.1c0.5,0,0.9,0.4,0.9,0.9
			s-0.4,0.9-0.9,0.9s-0.9-0.4-0.9-0.9S230.4,360.1,230.9,360.1z"/>
		<path class="st46" d="M257.4,368.4l-0.8-2.2h-2.7c-0.3,0.7-0.6,1.5-0.8,2.2h-1.9l3-8.1h2.1l3,8.1H257.4z M254.4,364.7h1.7
			l-0.9-2.7L254.4,364.7z M255.2,361.9l0.2,0.1h-0.2V361.9z"/>
		<path class="st46" d="M268.4,370.9l1-3h-0.1l-2.2-5.5h1.7l1.3,3.5l1.2-3.5h1.8l-3,8.5H268.4z"/>
		<path class="st46" d="M282.2,370.9l1-3h-0.1l-2.2-5.5h1.7l1.3,3.5l1.2-3.5h1.8l-3,8.5H282.2z"/>
		<path class="st46" d="M300.7,368.1c0,0-0.9,0.4-1.5,0.4c-0.4,0-0.8-0.5-0.8-0.5c-0.3,0.2-0.9,0.5-1.6,0.5c-0.9,0-1.8-0.7-1.8-1.8
			c0-1.1,1-1.8,1.9-1.8c0.6,0,1.3,0.1,1.3,0.1v-0.6c0-0.4-0.3-0.7-0.7-0.7c-0.3,0-1.5,0.3-1.5,0.3l-0.4-1c0,0,1.5-0.6,2.2-0.6
			c0.9,0,2.2,0.6,2.2,1.9v2.9h0.5L300.7,368.1z M298.3,367.1V366h-0.9c-0.3,0-0.6,0.2-0.6,0.6c0,0.3,0.3,0.6,0.6,0.6
			C297.8,367.2,298.3,367.1,298.3,367.1z"/>
		<path class="st46" d="M311.3,362.3c0.5,0,1.3,0.2,1.3,0.2v-3h1.7v8.7l-1.2,0.2l-0.3-0.4c-0.3,0.2-0.9,0.4-1.8,0.4
			c-1.2,0-2.1-1-2.1-3.1C308.9,363.3,310.4,362.3,311.3,362.3z M311.6,367.2c0.4,0,1-0.1,1-0.1v-3.2c-0.2,0-0.6-0.1-1-0.1
			c-0.5,0-0.9,0.7-0.9,1.7C310.7,366.4,310.9,367.2,311.6,367.2z"/>
	</g>
</g>
</svg>
