<?xml version="1.0" encoding="utf-8"?>
<!-- Generator: Adobe Illustrator 26.0.1, SVG Export Plug-In . SVG Version: 6.00 Build 0)  -->
<svg version="1.1" xmlns="http://www.w3.org/2000/svg" xmlns:xlink="http://www.w3.org/1999/xlink" x="0px" y="0px"
	 viewBox="0 0 500 345.44" style="enable-background:new 0 0 500 345.44;" xml:space="preserve">
<style type="text/css">
	.st0{fill:#FFFFFF;}
	.st1{fill:#F1E5DC;}
	.st2{fill:#DDECFF;}
	.st3{fill:#60A8FF;}
	.st4{fill:#223A7A;}
	.st5{fill:#1C83FF;}
	.st6{fill:#FF9D8C;}
	.st7{fill:#8593B6;}
	.st8{fill:#8E9BBB;}
	.st9{fill:#DEE1EB;}
	.st10{fill:#818FB3;}
	.st11{fill:#6BAEFF;}
	.st12{fill:#43588E;}
	.st13{fill:#F6F7FA;}
	.st14{fill:#D9DEE8;}
	.st15{fill:#596B9B;}
	.st16{fill:#7A89AF;}
	.st17{fill:#BDC4D7;}
	.st18{fill:#6F7FA9;}
	.st19{fill:#9CA6C3;}
	.st20{fill:#BF855E;}
	.st21{fill:#D2E6FF;}
	.st22{fill:#FF5F42;}
	.st23{fill:#67ACFF;}
	.st24{fill:#A35119;}
	.st25{fill:#D4D6ED;}
	.st26{fill:#221B40;}
	.st27{fill:#4F66AB;}
	.st28{fill:#C0C4DD;}
	.st29{fill:none;stroke:#D4D6ED;stroke-miterlimit:10;}
	.st30{fill:#CB5A50;}
	.st31{clip-path:url(#SVGID_00000047748711372044020680000017247732429238805139_);fill:#CB5A50;}
	.st32{fill:#EDB92B;}
	.st33{opacity:0.2;fill:#FFFFFF;}
	.st34{opacity:0.2;fill:#272425;}
	.st35{clip-path:url(#SVGID_00000089545494493331741160000000059172234345931441_);fill:#B05B5A;}
	.st36{clip-path:url(#SVGID_00000089545494493331741160000000059172234345931441_);fill:none;stroke:#5A6D74;stroke-miterlimit:10;}
	.st37{fill:#EBE8EB;}
	.st38{fill:#E7B393;}
	.st39{fill:#6081BE;}
	.st40{fill:#E0E8E3;}
	.st41{fill:#D5957D;}
	.st42{opacity:0.2;}
	.st43{fill:#272425;}
	.st44{fill:#8DC185;}
	.st45{fill:#334367;}
	.st46{fill:none;}
	.st47{fill:#758DB8;}
	.st48{fill:#A3B0D6;}
	.st49{fill:#6780A9;}
</style>
<g id="BACKGROUND">
</g>
<g id="OBJECTS">
	<g>
		<path class="st25" d="M14.42,332.54c0,3.46,105.47,6.26,235.58,6.26s235.58-2.8,235.58-6.26c0-3.46-105.47-6.26-235.58-6.26
			S14.42,329.09,14.42,332.54z"/>
		<g>
			<path class="st26" d="M384.58,333.11H186.24c-2.21,0-4-1.79-4-4V37.91c0-2.21,1.79-4,4-4h198.34c2.21,0,4,1.79,4,4v291.2
				C388.58,331.32,386.79,333.11,384.58,333.11z"/>
			<path class="st27" d="M381.06,333.11H182.71c-2.21,0-4-1.79-4-4V37.91c0-2.21,1.79-4,4-4h198.34c2.21,0,4,1.79,4,4v291.2
				C385.06,331.32,383.27,333.11,381.06,333.11z"/>
			<rect x="196.17" y="46.87" class="st28" width="178.48" height="273.29"/>
			<rect x="192.64" y="46.87" class="st0" width="178.48" height="273.29"/>
			<path class="st26" d="M325.22,53.03h-86.66V31.81c0-2.76,2.24-5,5-5h76.66c2.76,0,5,2.24,5,5V53.03z"/>
			<path class="st26" d="M281.89,6.63c-11.14,0-20.17,9.03-20.17,20.17c0,11.14,9.03,20.17,20.17,20.17
				c11.14,0,20.17-9.03,20.17-20.17C302.06,15.66,293.03,6.63,281.89,6.63z M281.89,36.89c-5.57,0-10.09-4.52-10.09-10.09
				c0-5.57,4.52-10.09,10.09-10.09c5.57,0,10.09,4.52,10.09,10.09C291.97,32.38,287.46,36.89,281.89,36.89z"/>
			<g>
				<path class="st29" d="M343.48,123.79h-17.71c-1.1,0-2-0.9-2-2v-17.71c0-1.1,0.9-2,2-2h17.71c1.1,0,2,0.9,2,2v17.71
					C345.48,122.89,344.58,123.79,343.48,123.79z"/>
				<g>
					<g>
						<path class="st30" d="M317.66,109.92c3.58,3.58,7.16,7.16,10.74,10.74c0.95,0.95,2.58,0.96,3.54,0
							c7.35-7.35,14.71-14.71,22.06-22.06c1.04-1.04,2.07-2.07,3.11-3.11c2.28-2.28-1.26-5.81-3.54-3.54
							c-7.35,7.35-14.71,14.71-22.06,22.06c-1.04,1.04-2.07,2.07-3.11,3.11c1.18,0,2.36,0,3.54,0c-3.58-3.58-7.16-7.16-10.74-10.74
							C318.92,104.11,315.38,107.64,317.66,109.92L317.66,109.92z"/>
					</g>
				</g>
				<path class="st29" d="M343.48,165.9h-17.71c-1.1,0-2-0.9-2-2v-17.71c0-1.1,0.9-2,2-2h17.71c1.1,0,2,0.9,2,2v17.71
					C345.48,165,344.58,165.9,343.48,165.9z"/>
				<g>
					<g>
						<path class="st30" d="M317.66,152.03c3.58,3.58,7.16,7.16,10.74,10.74c0.95,0.95,2.58,0.96,3.54,0
							c7.35-7.35,14.71-14.71,22.06-22.06c1.04-1.04,2.07-2.07,3.11-3.11c2.28-2.28-1.26-5.81-3.54-3.54
							c-7.35,7.35-14.71,14.71-22.06,22.06c-1.04,1.04-2.07,2.07-3.11,3.11c1.18,0,2.36,0,3.54,0c-3.58-3.58-7.16-7.16-10.74-10.74
							C318.92,146.22,315.38,149.75,317.66,152.03L317.66,152.03z"/>
					</g>
				</g>
				<path class="st29" d="M343.48,206.05h-17.71c-1.1,0-2-0.9-2-2v-17.71c0-1.1,0.9-2,2-2h17.71c1.1,0,2,0.9,2,2v17.71
					C345.48,205.16,344.58,206.05,343.48,206.05z"/>
				<g>
					<g>
						<path class="st30" d="M317.66,192.19c3.58,3.58,7.16,7.16,10.74,10.74c0.95,0.95,2.58,0.96,3.54,0
							c7.35-7.35,14.71-14.71,22.06-22.06c1.04-1.04,2.07-2.07,3.11-3.11c2.28-2.28-1.26-5.81-3.54-3.54
							c-7.35,7.35-14.71,14.71-22.06,22.06c-1.04,1.04-2.07,2.07-3.11,3.11c1.18,0,2.36,0,3.54,0c-3.58-3.58-7.16-7.16-10.74-10.74
							C318.92,186.37,315.38,189.91,317.66,192.19L317.66,192.19z"/>
					</g>
				</g>
				<path class="st29" d="M343.48,246.86h-17.71c-1.1,0-2-0.9-2-2v-17.71c0-1.1,0.9-2,2-2h17.71c1.1,0,2,0.9,2,2v17.71
					C345.48,245.96,344.58,246.86,343.48,246.86z"/>
				<g>
					<g>
						<path class="st30" d="M317.66,233c3.58,3.58,7.16,7.16,10.74,10.74c0.95,0.95,2.58,0.96,3.54,0
							c7.35-7.35,14.71-14.71,22.06-22.06c1.04-1.04,2.07-2.07,3.11-3.11c2.28-2.28-1.26-5.81-3.54-3.54
							c-7.35,7.35-14.71,14.71-22.06,22.06c-1.04,1.04-2.07,2.07-3.11,3.11c1.18,0,2.36,0,3.54,0c-3.58-3.58-7.16-7.16-10.74-10.74
							C318.92,227.18,315.38,230.72,317.66,233L317.66,233z"/>
					</g>
				</g>
				<g>
					<path class="st28" d="M307.14,104.68h-89.6c-0.55,0-1-0.45-1-1v-1.58c0-0.55,0.45-1,1-1h89.6c0.55,0,1,0.45,1,1v1.58
						C308.14,104.24,307.7,104.68,307.14,104.68z"/>
					<path class="st28" d="M307.14,113.91h-89.6c-0.55,0-1-0.45-1-1v-1.58c0-0.55,0.45-1,1-1h89.6c0.55,0,1,0.45,1,1v1.58
						C308.14,113.46,307.7,113.91,307.14,113.91z"/>
					<path class="st28" d="M285.55,123.13h-68c-0.55,0-1-0.45-1-1v-1.58c0-0.55,0.45-1,1-1h68c0.55,0,1,0.45,1,1v1.58
						C286.55,122.69,286.1,123.13,285.55,123.13z"/>
					<path class="st28" d="M307.14,146.79h-89.6c-0.55,0-1-0.45-1-1v-1.58c0-0.55,0.45-1,1-1h89.6c0.55,0,1,0.45,1,1v1.58
						C308.14,146.34,307.7,146.79,307.14,146.79z"/>
					<path class="st28" d="M307.14,156.02h-89.6c-0.55,0-1-0.45-1-1v-1.58c0-0.55,0.45-1,1-1h89.6c0.55,0,1,0.45,1,1v1.58
						C308.14,155.57,307.7,156.02,307.14,156.02z"/>
					<path class="st28" d="M285.55,165.24h-68c-0.55,0-1-0.45-1-1v-1.58c0-0.55,0.45-1,1-1h68c0.55,0,1,0.45,1,1v1.58
						C286.55,164.8,286.1,165.24,285.55,165.24z"/>
					<path class="st28" d="M307.14,186.95h-89.6c-0.55,0-1-0.45-1-1v-1.58c0-0.55,0.45-1,1-1h89.6c0.55,0,1,0.45,1,1v1.58
						C308.14,186.5,307.7,186.95,307.14,186.95z"/>
					<path class="st28" d="M307.14,196.17h-89.6c-0.55,0-1-0.45-1-1v-1.58c0-0.55,0.45-1,1-1h89.6c0.55,0,1,0.45,1,1v1.58
						C308.14,195.73,307.7,196.17,307.14,196.17z"/>
					<path class="st28" d="M285.55,205.4h-68c-0.55,0-1-0.45-1-1v-1.58c0-0.55,0.45-1,1-1h68c0.55,0,1,0.45,1,1v1.58
						C286.55,204.95,286.1,205.4,285.55,205.4z"/>
					<path class="st28" d="M307.14,227.76h-89.6c-0.55,0-1-0.45-1-1v-1.58c0-0.55,0.45-1,1-1h89.6c0.55,0,1,0.45,1,1v1.58
						C308.14,227.31,307.7,227.76,307.14,227.76z"/>
					<path class="st28" d="M307.14,236.98h-89.6c-0.55,0-1-0.45-1-1v-1.58c0-0.55,0.45-1,1-1h89.6c0.55,0,1,0.45,1,1v1.58
						C308.14,236.53,307.7,236.98,307.14,236.98z"/>
					<path class="st28" d="M285.55,246.21h-68c-0.55,0-1-0.45-1-1v-1.58c0-0.55,0.45-1,1-1h68c0.55,0,1,0.45,1,1v1.58
						C286.55,245.76,286.1,246.21,285.55,246.21z"/>
				</g>
			</g>
		</g>
		<g>
			<path class="st26" d="M189.48,114.81c4.53,0.36,12.61,3.5,11.01,9.53c-0.07,0.27-0.17,0.54-0.38,0.72
				c-0.28,0.25-0.69,0.27-1.06,0.28c-2.02,0.06-4.22-0.08-5.76-1.39c-0.97-0.82-1.58-2.02-2.61-2.76c-0.6-0.43-1.3-0.68-1.99-0.92
				c-1.2-0.42-2.4-0.84-3.59-1.26c-0.63-0.22-1.35-0.53-1.54-1.17c-0.21-0.7,0.34-1.41,0.93-1.84
				C185.89,114.98,187.73,114.67,189.48,114.81z"/>
			<path class="st26" d="M84.23,333.18c0.02,0.01,0.05,0.01,0.07,0.01c1.89,0.38,3.82,0.31,5.74,0.33
				c3.49,0.03,6.96,0.06,10.45-0.09c2.14-0.1,3.01-1.16,3.41-3.15c0.42-2.07,0.57-4.19,0.46-6.3c-0.01-0.2-0.03-0.42-0.13-0.59
				c-0.14-0.22-0.4-0.33-0.64-0.42c-0.85-0.31-1.73-0.52-2.63-0.62c-0.62-0.07-1.75-0.29-2.27,0.1c-0.52,0.39-0.92,1.31-1.28,1.85
				c-0.47,0.68-0.94,1.36-1.54,1.94c-1.16,1.13-2.67,1.83-4.22,2.3c-1.55,0.47-3.15,0.72-4.72,1.09c-1.17,0.27-2.35,0.62-3.33,1.33
				c-0.4,0.29-0.79,0.73-0.73,1.22C82.95,332.76,83.63,333.05,84.23,333.18z"/>
			<path class="st26" d="M169.54,333.18c-0.02,0.01-0.05,0.01-0.07,0.01c-1.89,0.38-3.82,0.31-5.74,0.33
				c-3.49,0.03-6.96,0.06-10.45-0.09c-2.14-0.1-3.01-1.16-3.41-3.15c-0.42-2.07-0.57-4.19-0.46-6.3c0.01-0.2,0.03-0.42,0.13-0.59
				c0.14-0.22,0.4-0.33,0.64-0.42c0.85-0.31,1.73-0.52,2.63-0.62c0.62-0.07,1.75-0.29,2.27,0.1c0.52,0.39,0.92,1.31,1.28,1.85
				c0.46,0.68,0.94,1.36,1.54,1.94c1.16,1.13,2.67,1.83,4.22,2.3c1.55,0.47,3.15,0.72,4.72,1.09c1.17,0.27,2.35,0.62,3.33,1.33
				c0.4,0.29,0.79,0.73,0.73,1.22C170.82,332.76,170.14,333.05,169.54,333.18z"/>
			<path class="st26" d="M127.25,101.49c-0.03,0.52-0.09,1.04-0.21,1.55c-0.55,2.29-2.24,3.98-3.48,5.91
				c-1.06,1.64-1.29,3.71-1,5.61c0.62,4.08,3.08,7.92,5.8,10.93c0.58,0.65,1.25,1.47,2,1.92c0.87,0.53,2.05,0.81,3.01,1.13
				c2.73,0.91,5.56,1.52,8.42,1.81c1.41,0.15,2.82,0.21,4.23,0.23c1.29,0.02,2.54-0.72,3.7-1.29c1.33-0.65,2.61-1.45,3.71-2.45
				c1.17-1.07,2.11-2.37,3.03-3.66c0.71-1,1.43-2.05,1.68-3.25c0.31-1.43-0.06-2.99,0.48-4.36c0.34-0.87,1-1.56,1.51-2.34
				c1.67-2.6-0.7-5.74,0.66-8.45c0.85-1.68,2.56-2.71,3.29-4.46c0.69-1.65,0.67-3.61-0.01-5.26c-1.13-2.74-3.69-4.65-6.41-5.84
				c-3.1-1.35-7.03-1.81-9.63,0.36c-0.55,0.46-1.02,1.02-1.54,1.51c-4.2,3.95-9.64,0.8-14.47,2.62c-2.01,0.75-3.79,2.32-4.38,4.38
				C127.3,99.19,127.33,100.35,127.25,101.49z"/>
			<g>
				<g>
					<defs>
						<polygon id="SVGID_1_" points="269.26,119.91 231.72,114.34 234.9,135.59 						"/>
					</defs>
					<use xlink:href="#SVGID_1_"  style="overflow:visible;fill:#EBE8EB;"/>
					<clipPath id="SVGID_00000083067246186698182220000006206655438010811799_">
						<use xlink:href="#SVGID_1_"  style="overflow:visible;"/>
					</clipPath>
					<path style="clip-path:url(#SVGID_00000083067246186698182220000006206655438010811799_);fill:#CB5A50;" d="M254.79,124.83
						c0.32,1.29,0.86,2.47,1.62,3.43c2.64,3.37,8.9,1.13,12.01-0.28c3.67-1.66,6.25-4.87,6.6-8.94c0.09-1.11-0.05-2.26-0.6-3.23
						c-1.22-2.14-4.23-2.58-6.41-3.07c-2.67-0.6-5.48-0.69-8.12,0.1C255.28,114.24,253.63,120.19,254.79,124.83z"/>
				</g>
				<polygon class="st32" points="230.74,114.29 63.71,135.38 61.69,158.63 234.14,135.8 				"/>
				<polygon class="st33" points="60.06,143.04 231.9,121.66 230.74,114.29 63.71,135.38 				"/>
				<polygon class="st34" points="60.94,151.48 233.14,129.46 234.14,135.8 61.69,158.63 				"/>
				<g>
					<defs>
						<path id="SVGID_00000083080266129832520510000002281010615159425461_" d="M63.71,135.38l2.96,22.58l-23.32,3.15
							c-2.12,0.29-4.07-1.2-4.35-3.32l-2.11-15.58c-0.29-2.16,1.26-4.14,3.43-4.37L63.71,135.38z"/>
					</defs>
					<use xlink:href="#SVGID_00000083080266129832520510000002281010615159425461_"  style="overflow:visible;fill:#708189;"/>
					<clipPath id="SVGID_00000060742134909866177140000016985449339978697644_">
						<use xlink:href="#SVGID_00000083080266129832520510000002281010615159425461_"  style="overflow:visible;"/>
					</clipPath>
					<polygon style="clip-path:url(#SVGID_00000060742134909866177140000016985449339978697644_);fill:#B05B5A;" points="
						46.16,134.64 49.79,161.87 37.79,162.73 33.89,137.49 					"/>
					
						<polyline style="clip-path:url(#SVGID_00000060742134909866177140000016985449339978697644_);fill:none;stroke:#5A6D74;stroke-miterlimit:10;" points="
						51.45,134.2 55.16,161.92 61.03,161.47 57.12,133.72 					"/>
				</g>
				<path class="st37" d="M233.81,129.55c-2.04,0.59-4.21-0.72-4.84-2.93c-0.63-2.2,0.51-4.47,2.55-5.05s4.21,0.72,4.84,2.93
					C236.99,126.7,235.85,128.96,233.81,129.55z"/>
				<path class="st37" d="M234.55,135.69c-1.86,0.53-3.76-0.45-4.27-2.19c-0.5-1.74,0.6-3.58,2.45-4.12
					c1.86-0.53,3.77,0.45,4.27,2.19C237.51,133.31,236.41,135.15,234.55,135.69z"/>
				<path class="st37" d="M232.37,121.66c-1.86,0.53-3.83-0.66-4.4-2.66c-0.58-2,0.46-4.05,2.32-4.59c1.86-0.53,3.83,0.66,4.4,2.66
					C235.26,119.08,234.22,121.13,232.37,121.66z"/>
			</g>
			<path class="st27" d="M107.23,287.86c3.68-15.18,7.09-30.42,9.06-45.91c0.63-4.96,1.24-9.93,1.93-14.88
				c0.75-5.36,1.61-10.46,2.67-18.07c0.38-2.75,6.07-2.7,8.78-3.33c6.75-1.56,13.71-0.74,20.56-0.62c2.52,0.04,5.94-1.02,7.6,1.19
				c1.77,2.36,1.73,6.51,1.89,9.31c1.41,24.87-1.57,49.69-2.27,74.53c-0.29,10.43-0.11,20.78,0.41,31.2c0.1,2.06-0.41,4.1-2.76,4.41
				c-1.08,0.14-3.28,0.04-4.26-0.53c-2.22-1.28-3.61-5.5-4.37-7.74c-1.09-3.23-1.68-6.6-2.26-9.95c-1.07-6.2-1.59-12.48-2.01-18.75
				c-1.37-20.43-2.43-33.62-0.91-55.84c-2.08,11.95-2.03,19.76-5.7,31.33c-3.48,10.97-8.55,21.34-13.79,31.55
				c-2.91,5.66-5.67,11.4-8.83,16.93c-1.58,2.76-3.25,5.47-5.08,8.07c-1.61,2.28-2.87,4.6-5.89,4.95c-1.3,0.15-2.61,0-3.91-0.16
				c-0.36-0.04-0.77-0.12-0.94-0.44c-0.11-0.2-0.08-0.45-0.05-0.67c0.89-6.07,3.9-12.01,5.53-17.95
				C104.31,300.32,105.73,294.08,107.23,287.86z"/>
			<path class="st38" d="M118.37,209.59c0.38-0.27,0.82-0.48,1.26-0.66c0.87-0.35,1.76-0.63,2.68-0.83c2.13-0.47,1.95,0.8,2.37,2.28
				c0.51,1.78,1.58,3.54,2.26,5.28c0.75,1.91,2.12,3.57-0.08,4.82c-1.12,0.63-2.37,1.03-3.65,1.16c-0.25,0.02-0.51,0.04-0.74-0.06
				c-0.22-0.09-0.38-0.28-0.54-0.46c-0.98-1.19-1.94-2.5-2.83-3.76c-1.28-1.81-2.32-3.35-1.94-5.69c0.07-0.43,0.19-0.86,0.41-1.23
				C117.77,210.09,118.05,209.82,118.37,209.59z"/>
			<g>
				<g>
					<path class="st39" d="M119.52,222.48c2.84,0.18,5.55,0.08,7.96-1.57c2.14-1.47,3.66-3.62,4.66-5.99
						c0.25-0.59-0.72-0.85-0.96-0.27c-0.91,2.16-2.37,4.18-4.34,5.48c-0.88,0.58-1.84,1.01-2.88,1.23c-1.46,0.31-2.97,0.2-4.44,0.11
						C118.88,221.44,118.88,222.44,119.52,222.48L119.52,222.48z"/>
				</g>
			</g>
			<g>
				<g>
					<path class="st39" d="M159.3,226.22c-1.32,0.22-2.48,0.18-3.43-0.85c-0.67-0.73-1.14-1.63-1.55-2.52
						c-1.24-2.73-1.88-5.75-2.34-8.7c-0.1-0.63-1.06-0.36-0.96,0.27c0.51,3.23,1.23,6.55,2.71,9.49c0.45,0.9,1.01,1.83,1.77,2.5
						c1.19,1.06,2.59,1.03,4.07,0.78C160.2,227.08,159.93,226.12,159.3,226.22L159.3,226.22z"/>
				</g>
			</g>
			<path class="st34" d="M150.37,205.05c-0.08,0-0.17,0-0.25,0c-6.85-0.11-13.81-0.94-20.56,0.62c-2.7,0.63-8.39,0.58-8.78,3.33
				c-0.31,2.2-0.6,4.19-0.87,6.03c1.23,1.02,2.85,1.77,4.07,2.28c4.5,1.89,9.27,3.04,14.07,3.86c5.51,0.94,13.02,0,15.87,5.98
				c1.34,2.81,1.42,6.03,1.47,9.13c0.26,14.58,0.53,29.51-0.74,44.17c-0.65,7.47-1.7,14.92-3.34,22.25
				c-1.29,5.79-3.5,12.03-3.71,18.1c0.78,1.8,1.8,3.6,3.12,4.35c0.98,0.57,3.18,0.67,4.26,0.53c2.35-0.3,2.86-2.34,2.76-4.41
				c-0.52-10.42-0.7-20.77-0.41-31.2c0.7-24.84,3.68-49.66,2.27-74.53c-0.07-1.2-0.1-2.66-0.26-4.11
				C157.17,208.47,153.91,206.33,150.37,205.05z"/>
			<path class="st38" d="M162.07,145.09c-0.65,0.36-1.25,0.79-1.77,1.33c-2.14,2.24-1.46,6.48,1.47,7.76
				c3.51,1.53,7.76,0.49,11.27-0.48c8.38-2.3,16.26-6,23.86-10.16c1.09-0.6,2.76-1.29,3.99-2.24c0.6-0.46,1.08-0.98,1.37-1.58
				L162.07,145.09z"/>
			<path class="st40" d="M162.99,160.21c-0.63-3.13-1.51-6.2-2.73-9.17c-1.38-3.35-3.64-7.38-6.86-9.32
				c-3.01-1.82-8.94-0.08-12.28,0.69c-3.14,0.73-7.87,1.72-10.42,3.82c-2.35,1.94-2.09,6.8-1.81,9.61c0.33,3.23,1.12,6.41,1.4,9.64
				c0.52,5.91-0.65,11.84-2.05,17.6c-1.67,6.9-3.69,13.74-6.35,20.33c-0.39,0.98-0.81,2-0.7,3.04c0.18,1.79,1.8,3.05,3.35,3.97
				c10.2,6.04,22.68,5.11,34.13,4.55c0.95-0.05,1.95-0.12,2.73-0.67c0.97-0.68,1.34-1.93,1.6-3.09c1.42-6.28,1.46-12.77,1.44-19.21
				C164.41,181.57,165.07,170.56,162.99,160.21z"/>
			<path class="st38" d="M145.5,144.82c-2.29-0.7-4.55-1.47-6.78-2.33c-0.23-0.09-0.47-0.18-0.64-0.36
				c-0.47-0.48-0.38-1.54-0.42-2.17c-0.05-0.82-0.02-1.65,0.04-2.46c0.11-1.5,0.36-3,0.35-4.51c-0.01-1.21,0-2.47,0.55-3.55
				c0.66-1.29,2.03-2.1,3.44-2.44c1.41-0.34,2.88-0.26,4.33-0.19c0.42,0.02,0.87,0.06,1.19,0.33c1.07,0.92,0.82,2.73,0.96,3.99
				c0.2,1.83,0.61,3.64,1.01,5.43c0.19,0.84,0.45,1.66,0.65,2.49c0.16,0.66,0.5,1.53,0.24,2.17c-0.57,1.43-1.82,2.73-3.04,3.62
				c-0.16,0.12-0.34,0.24-0.54,0.27c-0.21,0.03-0.42-0.03-0.62-0.09C145.96,144.96,145.73,144.89,145.5,144.82z"/>
			<path class="st41" d="M139.72,136.8c2.85,1.82,6.85,2.91,10.23,1.95c-0.14-0.72-0.28-1.45-0.44-2.18c-0.4-1.8-0.81-3.6-1.01-5.43
				c-0.13-1.26,0.11-3.07-0.96-3.99c-0.32-0.27-0.77-0.31-1.19-0.33c-1.45-0.08-2.92-0.15-4.33,0.19c-1.41,0.34-2.78,1.15-3.44,2.44
				c-0.55,1.08-0.56,2.34-0.55,3.55c0.01,0.78-0.04,1.62-0.08,2.49C138.51,135.95,139.09,136.4,139.72,136.8z"/>
			<path class="st38" d="M131.61,121.2c0.74,5.22,3.62,10.22,8.11,13.1c3.44,2.2,8.55,3.34,12.24,1.09
				c4.95-3.02,5.95-10.36,5.82-15.64c-0.15-6.23-2.6-13.21-8.64-15.99c-4.25-1.95-10.9-2.15-13.94,1.92
				C132.06,109.89,130.84,115.76,131.61,121.2z"/>
			<path class="st38" d="M190.08,116.8c2.39,2.21,4.07,5.01,1.61,6.46c-0.8,0.47-1.78-0.27-2.29-1.05c-0.5-0.78-0.97-1.75-1.88-1.96
				c-0.7-0.16-1.41,0.21-2.03,0.57c-2.35,1.34-4.69,2.68-7.04,4.02c-0.38,0.21-0.76,0.43-1.18,0.54c-1.31,0.33-2.72-0.56-3.26-1.8
				c-0.54-1.24-0.33-2.7,0.25-3.93c2.04-4.35,5.08-4.79,9.4-4.94C186.22,114.62,188.18,115.04,190.08,116.8z"/>
			<path class="st26" d="M150.76,103.49c-1.29,0.15-2.55,0.62-3.62,1.34c-2.16,1.46-3.5,3.87-5.44,5.61
				c-1.83,1.64-4.14,2.63-6.36,3.68c-0.42,0.2-0.85,0.41-1.13,0.77c-0.37,0.46-0.43,1.1-0.39,1.69c0.2,3.34,2.44,6.3,0.72,9.64
				c-0.18,0.35-0.4,0.68-0.71,0.92c-1.91,1.42-3.62-2.16-4.3-3.47c-1.01-1.95-1.63-4.11-1.84-6.29c-0.42-4.38,0.43-10.17,3.94-13.11
				c3.4-2.86,7.7-4.75,12.18-4.78c1.5-0.01,3.08,0.2,4.52,0.62c0.86,0.25,1.46,0.59,2.13,1.16c0.4,0.34,0.8,0.57,1.11,1.01
				c0.07,0.09,0.54,1.16,0.51,1.16C151.63,103.42,151.19,103.43,150.76,103.49z"/>
			<path class="st0" d="M143.98,127.34c1.91-0.16,3.75-0.13,5.64-0.55c1.9-0.43,3.75-1.1,5.47-2.01c0,0-0.18,2.03-0.24,2.24
				c-0.24,0.81-0.62,1.6-1.12,2.28c-1.63,2.22-5.33,2.85-7.65,1.38c-0.62-0.39-1.14-0.93-1.52-1.55
				C144.5,129.02,143.76,127.36,143.98,127.34z"/>
			<g>
				<g>
					<path class="st26" d="M150.64,112.49c1.47-0.72,3.59-0.9,4.74,0.47c0.17,0.21,0.53,0.18,0.71,0c0.2-0.2,0.17-0.5,0-0.71
						c-1.46-1.73-4.1-1.53-5.96-0.62c-0.24,0.12-0.31,0.46-0.18,0.68C150.1,112.56,150.39,112.61,150.64,112.49L150.64,112.49z"/>
				</g>
			</g>
			<g class="st42">
				<path class="st43" d="M140.75,233.73c-0.57,1.84-1,3.76-1.51,5.63c-2.35,8.51-5.37,17.16-9.68,25.01
					c-4.71,8.59-11.37,15.34-17.66,22.74c-2.22,2.61-4.41,5.32-6.43,8.13c-0.9,3.76-1.82,7.52-2.84,11.26
					c-1.63,5.94-4.64,11.87-5.53,17.95c-0.03,0.23-0.06,0.47,0.05,0.67c0.17,0.32,0.58,0.4,0.94,0.44c1.3,0.15,2.61,0.31,3.91,0.16
					c3.01-0.35,4.28-2.67,5.89-4.95c1.83-2.6,3.5-5.31,5.08-8.07c3.16-5.53,5.92-11.27,8.83-16.93
					c5.24-10.21,10.31-20.58,13.79-31.55c3.67-11.57,3.63-19.37,5.7-31.33C141.15,232.89,140.79,233.62,140.75,233.73z"/>
				<path class="st43" d="M141.27,232.89c-0.01,0.15-0.02,0.3-0.03,0.44C141.29,233.12,141.34,232.89,141.27,232.89z"/>
			</g>
			<path class="st44" d="M140.37,161.52c0.02,1.58,0.05,3.15,0.07,4.73c0.01,1,0.03,2-0.22,2.97c-0.25,0.96-0.79,1.89-1.66,2.39
				c-1.81,1.03-4.67-0.53-5.69-2.11c-1.55-2.41-2.11-5.13-2.2-7.99c3.23-0.01,6.47-0.02,9.7-0.02
				C140.37,161.49,140.37,161.51,140.37,161.52z"/>
			<ellipse transform="matrix(0.866 -0.5 0.5 0.866 -45.4842 82.8658)" class="st38" cx="131.89" cy="126.31" rx="2.65" ry="4.29"/>
			<path class="st26" d="M143.02,119.23c0.29,1.34-0.05,2.54-0.76,2.7c-0.71,0.15-1.52-0.81-1.8-2.15c-0.29-1.34,0.05-2.55,0.76-2.7
				C141.92,116.93,142.73,117.89,143.02,119.23z"/>
			<path class="st26" d="M154.37,116.97c0.11,1.36-0.39,2.52-1.11,2.57c-0.72,0.06-1.4-1-1.5-2.37c-0.11-1.36,0.39-2.52,1.11-2.57
				C153.59,114.54,154.26,115.6,154.37,116.97z"/>
			<g>
				<g>
					<path class="st26" d="M142.37,113.34c-1.25-0.19-2.42,0.25-3.46,0.9c-0.99,0.62-1.63,1.57-2.04,2.65
						c-0.1,0.25,0.11,0.55,0.35,0.62c0.28,0.08,0.52-0.1,0.62-0.35c0.31-0.83,0.82-1.58,1.58-2.05c0.79-0.49,1.74-0.95,2.69-0.8
						c0.27,0.04,0.54-0.07,0.62-0.35C142.78,113.72,142.64,113.38,142.37,113.34L142.37,113.34z"/>
				</g>
			</g>
			<polygon class="st0" points="150.38,140.13 146.97,144.99 152.06,149.3 152.06,141.01 			"/>
			<polygon class="st0" points="133.08,144.12 137.75,140.89 146.97,144.99 144.59,150.99 			"/>
			<path class="st26" d="M123.27,210.83c-2.63,0.12-4.35-2.11-4.44-4.82c-0.03-0.96-0.02-1.92,0.03-2.87
				c0.41-7.53,3.49-14.47,6.13-21.42c2.3-6.06,3.71-12.51,3.54-19.01c-0.14-5.21-1.14-10.43-3.1-15.27
				c-0.04-0.1-0.08-0.21-0.06-0.32c0.02-0.09,0.08-0.17,0.14-0.24c1.2-1.45,2.82-2.38,4.41-3.33c1.72-1.03,3.39-1.97,5.32-2.58
				c0.34-0.11,1.63-0.65,1.89-0.59c1.53,0.37,3.22,5.19,3.82,6.53c6.34,14.05,3.78,30.83-2.66,44.36
				c-3.14,6.61-6.75,13.14-12.02,18.22c-0.43,0.41-0.88,0.82-1.44,1.02C124.27,210.7,123.76,210.81,123.27,210.83z"/>
			<path class="st26" d="M108.63,172.11c-1.8,3.04-3.93,6.33-4.52,9.76c-0.75,4.38,0.45,8.51,1.82,12.68
				c2.58,7.85,6.44,15.14,10.98,21.97c0.19,0.28,0.44,0.59,0.77,0.57c0.16-0.01,0.31-0.1,0.45-0.2c2.2-1.45,4.4-2.91,6.61-4.36
				c0.35-0.23,0.71-0.48,0.89-0.86c0.26-0.56,0.03-1.2-0.19-1.77c-2-5.05-3.99-10.09-5.99-15.14c-0.88-2.22-1.77-4.48-2-6.86
				c-0.34-3.55,0.84-7.12,2.72-10.15c1.88-3.03,4.43-5.59,7.04-8.01c0.93-0.86,1.9-1.74,2.42-2.89c1.68-3.69,1.4-7.99,1.03-11.93
				c-0.2-2.09,0.11-9.02-3.2-8.95c-0.61,0.01-1.16,0.38-1.64,0.75c-3.79,2.93-6.27,7.1-8.66,11.16c-2.58,4.39-5.36,8.65-7.87,13.08
				C109.08,171.35,108.86,171.73,108.63,172.11z"/>
			<path class="st26" d="M165.83,198.47c0.15-10.29,0.3-20.59-0.28-30.87c-0.15-2.6-0.35-5.2-0.59-7.79
				c-0.16-1.68-0.36-1.61,0.86-2.47c0.9-0.63,2.45-0.89,3.49-1.27c6.32-2.3,12.64-4.62,18.92-7.03c5.59-2.15,11.1-4.89,15.06-9.52
				c-5.8,1.25-11.72,1.8-17.62,2.35c-7.95,0.74-15.93,1.47-23.91,1.27c-3.25-0.08-6.81-0.63-9.71-2.11c1.1,2.96,2.5,6.26,2.6,9.4
				c0.11,3.74,0.37,7.47,0.5,11.21c0.26,7.33,0.38,14.67,0.36,22.01c-0.02,11.36-0.83,22.35-1.91,33.63
				c2.47,0.2,4.96-0.02,7.36-0.66c0.42-0.11,0.86-0.24,1.18-0.53c0.34-0.3,0.52-0.72,0.69-1.14c1.27-3.09,2.22-6.33,2.64-9.65
				C165.76,203.03,165.8,200.75,165.83,198.47z"/>
			<path class="st45" d="M138.28,191.27c6.44-13.54,9-30.31,2.66-44.36c-0.6-1.34-2.29-6.16-3.82-6.53
				c-0.26-0.06-1.54,0.48-1.89,0.59c-0.11,0.04-0.21,0.08-0.32,0.12c0.14,0.65,0.51,1.13,0.84,1.86c0.63,1.39,0.96,2.89,1.29,4.38
				c1.45,6.57,1.64,13.41,0.53,20.05c0.95-0.1,1.93,0.01,2.84,0.33c-0.14,1.03-0.93,1.85-1.4,2.78c-0.93,1.85-0.58,4.04-0.34,6.1
				c0.61,5.32,0.27,10.74-0.99,15.94C137.88,192.1,138.08,191.68,138.28,191.27z"/>
			<path class="st46" d="M158.89,154.43c0.74,4.74,1.4,9.49,2.11,14.23c-0.53,0.07-1.09-0.02-1.57-0.26
				c0.23,2.73,0.46,5.48,0.12,8.19c-0.78,6.16-4.42,11.67-5.23,17.82c-0.94-6.75-1.87-13.5-2.39-20.3
				c-0.45-5.95-0.58-11.94-1.46-17.84c-0.73-4.87-1.97-9.67-2.23-14.58c-0.06-1.14-0.05-2.34,0.49-3.34c0.54-1,1.8-1.71,2.85-1.27
				c0.75,0.31,1.18,1.07,1.57,1.78C155.86,143.9,158.07,148.71,158.89,154.43z"/>
			<path class="st45" d="M161,168.66c-0.71-4.74-1.37-9.49-2.11-14.23c-0.64-4.5-2.15-8.42-4.08-12.34
				c-0.95-0.29-1.88-0.64-2.74-1.08c1.1,2.96,2.5,6.26,2.6,9.4c0.11,3.74,0.37,7.47,0.5,11.21c0.26,7.33,0.38,14.67,0.36,22.01
				c0,2.04-0.04,4.06-0.09,6.08c1.4-4.37,3.54-8.57,4.12-13.12c0.34-2.72,0.11-5.47-0.12-8.19
				C159.91,168.63,160.46,168.72,161,168.66z"/>
			<g>
				<g>
					<path class="st0" d="M147.96,147.89c1.46,3.95,1.93,8.23,2.23,12.4c0.31,4.22,0.31,8.46,0.19,12.69
						c-0.24,8.54-0.76,16.93-2.57,25.3c-1,4.63-2.08,9.25-2.92,13.91c-0.11,0.63,0.85,0.9,0.96,0.27c1.51-8.36,3.9-16.56,4.76-25.03
						c0.43-4.23,0.57-8.49,0.72-12.73c0.15-4.39,0.21-8.79-0.05-13.18c-0.28-4.65-0.72-9.5-2.35-13.9
						C148.7,147.03,147.73,147.28,147.96,147.89L147.96,147.89z"/>
				</g>
			</g>
		</g>
		<g>
			<g>
				<path class="st47" d="M432.71,249.17l-13.16-4.66l-6.93,12.36l0.42,0.15c-2.6-0.17-5.17-0.03-7.68,0.4l0.4-0.19l-8.18-11.56
					l-12.6,6.01l3.84,13.64l0.4-0.19c-1.92,1.68-3.65,3.59-5.15,5.72l0.15-0.42l-13.96-2.39l-4.66,13.16l12.36,6.93l0.15-0.42
					c-0.17,2.6-0.03,5.17,0.4,7.68l-0.19-0.4l-11.56,8.18l6.01,12.6l13.64-3.84l-0.19-0.4c1.68,1.92,3.59,3.65,5.72,5.15l-0.42-0.15
					l-2.39,13.96l13.16,4.66l6.93-12.36l-0.42-0.15c2.6,0.17,5.17,0.03,7.68-0.4l-0.4,0.19l8.18,11.56l12.6-6.01L433,314.35
					l-0.4,0.19c1.92-1.68,3.65-3.59,5.15-5.72l-0.15,0.42l13.96,2.39l4.66-13.16l-12.36-6.93l-0.15,0.42
					c0.17-2.6,0.03-5.17-0.4-7.69l0.19,0.4l11.56-8.18l-6.01-12.6l-13.64,3.84l0.19,0.4c-1.68-1.92-3.59-3.65-5.72-5.15l0.42,0.15
					L432.71,249.17z"/>
				
					<ellipse transform="matrix(0.7681 -0.6403 0.6403 0.7681 -90.2982 330.3105)" class="st48" cx="410.91" cy="289.83" rx="28.52" ry="28.52"/>
				
					<ellipse transform="matrix(0.47 -0.8827 0.8827 0.47 -38.029 516.3291)" class="st49" cx="410.91" cy="289.83" rx="21.42" ry="21.42"/>
				
					<ellipse transform="matrix(0.7527 -0.6583 0.6583 0.7527 -89.1992 342.1666)" class="st0" cx="410.91" cy="289.83" rx="14.9" ry="14.9"/>
			</g>
		</g>
		<g>
			<g>
				<path class="st47" d="M413.52,186.86l-8.42-4.07l-5.53,7.72l0.27,0.13c-1.72-0.3-3.44-0.4-5.15-0.3l0.28-0.1l-4.6-8.3
					l-8.83,3.07l1.55,9.36l0.28-0.1c-1.4,0.98-2.69,2.12-3.85,3.43l0.13-0.27l-9.12-2.62l-4.07,8.42l7.72,5.53l0.13-0.27
					c-0.3,1.72-0.4,3.44-0.3,5.15l-0.1-0.28l-8.3,4.6l3.07,8.83l9.36-1.55l-0.1-0.28c0.98,1.4,2.12,2.69,3.43,3.85l-0.27-0.13
					l-2.62,9.12l8.42,4.07l5.53-7.72l-0.27-0.13c1.72,0.3,3.44,0.4,5.15,0.3l-0.28,0.1l4.6,8.3l8.83-3.07l-1.55-9.36l-0.28,0.1
					c1.4-0.98,2.69-2.12,3.85-3.43l-0.13,0.27l9.12,2.62l4.07-8.42l-7.72-5.53l-0.13,0.27c0.3-1.72,0.4-3.44,0.3-5.15l0.1,0.28
					l8.3-4.6l-3.07-8.83l-9.36,1.55l0.1,0.28c-0.98-1.4-2.12-2.69-3.43-3.85l0.27,0.13L413.52,186.86z"/>
				
					<ellipse transform="matrix(0.4246 -0.9054 0.9054 0.4246 35.632 480.7203)" class="st48" cx="396" cy="212.33" rx="19.11" ry="19.11"/>
				<path class="st49" d="M402.25,199.41c7.14,3.45,10.12,12.04,6.67,19.17c-3.45,7.14-12.04,10.12-19.17,6.67
					c-7.14-3.45-10.12-12.04-6.67-19.17C386.53,198.94,395.12,195.96,402.25,199.41z"/>
				<path class="st0" d="M400.35,203.34c4.96,2.4,7.04,8.37,4.64,13.34c-2.4,4.96-8.37,7.04-13.34,4.64
					c-4.96-2.4-7.04-8.37-4.64-13.34C389.42,203.01,395.39,200.94,400.35,203.34z"/>
			</g>
		</g>
	</g>
</g>
</svg>
